<svg width="754" height="720" viewBox="0 0 754 720" fill="none" xmlns="http://www.w3.org/2000/svg" xmlns:xlink="http://www.w3.org/1999/xlink">
<g opacity="0.48" filter="url(#filter196_58)">
<path d="M100.927,81.358C104.711,81.617 105.572,81.513 106.002,81.721C164.661,112.656 235.361,129.652 307.696,144.679C358.958,155.353 410.306,165.872 461.654,176.443C504.83,185.356 545.084,197.429 581.81,214.011C631.438,236.344 657.068,266.191 660.854,302.878C663.434,328.062 664.724,353.348 664.896,378.584C665.412,459.782 665.068,540.928 665.068,622.126L665.068,637.206C658.876,634.562 655.52,633.32 652.596,631.816C618.364,614.094 580.434,599.898 538.288,590.466C465.61,574.196 392.33,558.806 319.134,543.312C271.657,533.26 225.814,521.6 185.045,503.154C137.653,481.7 110.302,453.978 105.314,418.536C102.991,402.058 101.099,385.476 101.099,368.946C100.669,276.607 100.927,184.216 100.927,91.877C100.927,88.612 100.927,85.348 100.927,81.41L100.927,81.358Z" transform="rotate(42.962 383.015 359.282)" fill="#FFFFFF"/>
</g>
<g filter="url(#filter196_60)">
<path d="M0.713,513.199C1.966,513.265 2.251,513.239 2.394,513.291C21.825,521.19 45.245,525.53 69.206,529.367C86.186,532.092 103.196,534.778 120.205,537.477C134.507,539.753 147.841,542.835 160.007,547.069C176.446,552.771 184.937,560.392 186.19,569.759C187.045,576.19 187.472,582.646 187.529,589.089C187.7,609.822 187.586,630.541 187.586,651.273L187.586,655.123C185.535,654.448 184.424,654.131 183.455,653.747C172.116,649.222 159.551,645.597 145.59,643.189C121.515,639.035 97.241,635.105 72.995,631.149C57.268,628.583 42.082,625.606 28.577,620.896C12.879,615.418 3.818,608.34 2.166,599.29C1.397,595.083 0.77,590.849 0.77,586.628C0.627,563.052 0.713,539.461 0.713,515.885C0.713,515.051 0.713,514.218 0.713,513.212L0.713,513.199Z" transform="rotate(42.962 94.155 584.161)" fill="#FFFFFF" fill-opacity="0.7"/>
</g>
<defs>
<filter id="filter196_58" x="-48.69991" y="-63.475391" width="494.415189" height="485.457042" filterUnits="userSpaceOnUse" color-interpolation-filters="sRGB">
<feFlood flood-opacity="0" result="BackgroundImageFix"/>
<feBlend mode="normal" in="SourceGraphic" in2="BackgroundImageFix" result="shape"/>
<feGaussianBlur stdDeviation="31.35" result="0foregroundblur"/>
</filter>
<filter id="filter196_60" x="-43.999937" y="460.382813" width="162.155419" height="147.778206" filterUnits="userSpaceOnUse" color-interpolation-filters="sRGB">
<feFlood flood-opacity="0" result="BackgroundImageFix"/>
<feBlend mode="normal" in="SourceGraphic" in2="BackgroundImageFix" result="shape"/>
<feGaussianBlur stdDeviation="12" result="0foregroundblur"/>
</filter>
</defs>
</svg>
