<svg width="48" height="46" viewBox="0 0 48 46" fill="none" xmlns="http://www.w3.org/2000/svg" xmlns:xlink="http://www.w3.org/1999/xlink">
<path d="M20.531,23.665L0.562,23.665L0.562,45.399L20.531,45.399L20.531,23.665Z" fill="#496141"/>
<path d="M20.531,21.146L20.531,0L10.435,0C4.984,0 0.562,4.282 0.562,9.559L0.562,21.146L20.531,21.146Z" fill="#496141"/>
<path d="M46.348,33.5C45.06,34.748 43.487,35.731 41.628,36.451C38.544,37.638 35.013,38.154 31.767,37.314C28.051,36.343 25.487,33.896 24.062,31.173C23.901,32.457 24.05,45.411 24,45.411L47.438,45.411L47.438,32.301C47.104,32.721 46.732,33.128 46.348,33.512L46.348,33.5Z" fill="#496141"/>
<path d="M47.438,16.576L47.438,0L27.072,0C26.825,0.816 26.701,1.655 26.701,2.531C26.701,4.078 27.035,5.349 27.716,6.357C28.398,7.365 29.29,8.228 30.392,8.936C31.495,9.643 32.758,10.243 34.171,10.723C35.583,11.203 37.02,11.682 38.507,12.15C39.993,12.618 41.443,13.146 42.842,13.71C44.255,14.273 45.506,14.993 46.621,15.845C46.918,16.072 47.191,16.312 47.451,16.564L47.438,16.576Z" fill="#496141"/>
<path d="M31.111,23.365C35.769,26.915 40.34,27.755 46.447,27.995C46.98,26.7 47.104,25.668 47.104,24.193C47.104,22.585 46.769,21.254 46.088,20.223C45.407,19.179 44.515,18.315 43.412,17.62C42.297,16.924 41.046,16.336 39.634,15.869C38.222,15.401 36.785,14.933 35.298,14.489C33.811,14.033 32.362,13.53 30.962,12.978C29.55,12.426 28.299,11.707 27.184,10.843C26.069,9.979 25.177,8.888 24.508,7.593C24.396,7.389 24.297,7.173 24.211,6.945C23.021,12.294 26.886,20.187 31.098,23.389L31.111,23.365Z" fill="#83BC41"/>
<path d="M30.64,23.953C28.348,22.214 26.156,19.179 24.756,15.845C24.248,14.621 23.864,13.434 23.616,12.282C23.306,20.582 24.223,34.616 35.298,34.796C37.156,34.832 38.816,34.52 40.29,33.98C41.752,33.428 42.991,32.685 43.995,31.737C44.911,30.885 45.63,29.878 46.15,28.738C39.956,28.487 35.422,27.611 30.64,23.965L30.64,23.953Z" fill="#83BC41"/>
</svg>
