<svg width="1320" height="1320" viewBox="0 0 1320 1320" fill="none" xmlns="http://www.w3.org/2000/svg" xmlns:xlink="http://www.w3.org/1999/xlink">
<path d="M756.671,5.93L756.671,5.18L755.921,5.18L755.921,5.93L756.671,5.93ZM1314.071,5.93L1314.821,5.93L1314.821,5.18L1314.071,5.18L1314.071,5.93ZM1314.071,632.302L1314.071,633.052L1314.821,633.052L1314.821,632.302L1314.071,632.302ZM756.671,632.302L755.921,632.302L755.921,633.052L756.671,633.052L756.671,632.302ZM756.671,6.68L1314.071,6.68L1314.071,5.18L756.671,5.18L756.671,6.68ZM1313.321,5.93L1313.321,632.302L1314.821,632.302L1314.821,5.93L1313.321,5.93ZM1314.071,631.552L756.671,631.552L756.671,633.052L1314.071,633.052L1314.071,631.552ZM757.421,632.302L757.421,5.93L755.921,5.93L755.921,632.302L757.421,632.302Z" transform="rotate(-360 1035.371 319.116)" fill="#83BC41"/>
<path d="M1313.915,1314.069L1313.165,1314.069L1313.165,1314.819L1313.915,1314.819L1313.915,1314.069ZM1313.915,704.707L1314.665,704.707L1314.665,703.957L1313.915,703.957L1313.915,704.707ZM756.671,1314.069L755.921,1314.069L755.921,1314.819L756.671,1314.819L756.671,1314.069ZM1314.665,1314.069L1314.665,704.707L1313.165,704.707L1313.165,1314.069L1314.665,1314.069ZM1313.915,703.957L1031.937,703.957L1031.937,705.457L1313.915,705.457L1313.915,703.957ZM1031.937,703.957C879.534,703.957 755.921,827.57 755.921,979.973L757.421,979.973C757.421,828.399 880.362,705.457 1031.937,705.457L1031.937,703.957ZM755.921,979.973L755.921,1314.069L757.421,1314.069L757.421,979.973L755.921,979.973ZM756.671,1314.819L1314.071,1314.819L1314.071,1313.319L756.671,1313.319L756.671,1314.819ZM1314.071,1313.319L1313.915,1313.319L1313.915,1314.819L1314.071,1314.819L1314.071,1313.319Z" transform="rotate(-360 1035.371 1009.389)" fill="#83BC41"/>
<path d="M498.01,158.232L498.288,158.928L498.288,158.928L498.01,158.232ZM222.744,182.887L222.938,182.163L222.938,182.162L222.744,182.887ZM7.867,5.93L8.537,5.592L7.415,3.368L7.122,5.841L7.867,5.93ZM660.298,416.178L660.298,416.928L661.048,416.928L661.048,416.178L660.298,416.178ZM660.298,38.388L661.048,38.388L661.048,36.182L659.704,37.93L660.298,38.388ZM629.184,72.812C593.372,108.623 549.61,136.815 497.732,157.535L498.288,158.928C550.336,138.14 594.274,109.842 630.244,73.872L629.184,72.812ZM497.732,157.535C411.852,191.824 313.402,206.452 222.938,182.163L222.548,183.611C313.412,208.008 412.204,193.299 498.288,158.928L497.732,157.535ZM222.938,182.162C119.404,154.45 47.936,83.768 8.537,5.592L7.197,6.267C46.758,84.763 118.541,155.772 222.55,183.611L222.938,182.162ZM7.122,5.841C6.023,15.101 5.459,45.401 5.203,85.563C4.947,125.753 5,175.886 5.147,224.866C5.293,273.842 5.532,321.678 5.646,357.258C5.704,375.048 5.73,389.778 5.698,400.058C5.682,405.198 5.651,409.222 5.603,411.962C5.579,413.332 5.55,414.374 5.517,415.07C5.5,415.42 5.483,415.67 5.466,415.826C5.462,415.864 5.459,415.894 5.455,415.914C5.452,415.938 5.45,415.946 5.451,415.942C5.451,415.942 5.456,415.924 5.458,415.918C5.462,415.906 5.477,415.864 5.487,415.842C5.506,415.806 5.569,415.71 5.615,415.656C5.704,415.578 5.974,415.448 6.15,415.428L6.15,416.928C6.332,416.906 6.608,416.774 6.702,416.69C6.753,416.63 6.822,416.526 6.846,416.478C6.885,416.394 6.905,416.314 6.913,416.276C6.934,416.186 6.947,416.084 6.958,415.986C6.98,415.784 6.998,415.498 7.015,415.14C7.05,414.422 7.079,413.362 7.103,411.988C7.151,409.238 7.182,405.204 7.198,400.062C7.23,389.776 7.204,375.044 7.146,357.252C7.032,321.664 6.793,273.844 6.647,224.862C6.5,175.882 6.447,125.755 6.703,85.572C6.959,45.359 7.526,15.172 8.612,6.018L7.122,5.841ZM6.15,416.928L660.298,416.928L660.298,415.428L6.15,415.428L6.15,416.928ZM661.048,416.178L661.048,38.388L659.548,38.388L659.548,416.178L661.048,416.178ZM659.704,37.93C650.36,50.079 640.238,61.757 629.184,72.812L630.244,73.872C641.348,62.768 651.512,51.04 660.894,38.845L659.704,37.93Z" transform="rotate(-360 333.036 211.053)" fill="#83BC41"/>
<path d="M584.708,836.255L585.458,836.255L585.458,835.505L584.708,835.505L584.708,836.255ZM16.229,836.255L16.229,835.505L15.667,835.505L15.509,836.044L16.229,836.255ZM108.765,1093.733L109.179,1093.107L109.177,1093.105L108.765,1093.733ZM335.188,1186.581L334.954,1187.293L334.954,1187.293L335.188,1186.581ZM561.612,1293.161L562.084,1292.577L562.08,1292.573L561.612,1293.161ZM584.708,1313.915L585.458,1313.915L585.458,1313.599L585.232,1313.379L584.708,1313.915ZM585.458,1314.071L585.458,836.255L583.958,836.255L583.958,1314.071L585.458,1314.071ZM584.708,835.505L16.229,835.505L16.229,837.005L584.708,837.005L584.708,835.505ZM15.509,836.044C8.623,859.519 5.024,883.933 5.024,909.129L6.524,909.129C6.524,884.077 10.102,859.805 16.949,836.466L15.509,836.044ZM5.024,909.129C5.024,953.705 14.408,990.685 33.39,1019.863L34.647,1019.045C15.865,990.173 6.524,953.499 6.524,909.129L5.024,909.129ZM33.39,1019.863C52.33,1048.979 77.217,1073.863 108.352,1094.359L109.177,1093.105C78.206,1072.717 53.469,1047.979 34.647,1019.045L33.39,1019.863ZM108.351,1094.357C139.305,1114.837 174.472,1132.029 213.846,1145.935L214.346,1144.521C175.073,1130.651 140.019,1113.511 109.179,1093.107L108.351,1094.357ZM213.846,1145.935C253.176,1159.825 293.44,1173.559 334.954,1187.293L335.424,1185.869C293.92,1172.137 253.664,1158.407 214.346,1144.521L213.846,1145.935ZM334.954,1187.293C376.29,1200.863 416.688,1215.837 455.992,1232.213L456.57,1230.829C417.228,1214.437 376.792,1199.449 335.422,1185.867L334.954,1187.293ZM455.992,1232.213C495.256,1248.573 530.306,1269.137 561.144,1293.747L562.08,1292.573C531.126,1267.873 495.954,1247.239 456.57,1230.829L455.992,1232.213ZM561.142,1293.743C569.232,1300.279 576.86,1307.283 584.184,1314.451L585.232,1313.379C577.888,1306.189 570.222,1299.151 562.084,1292.577L561.142,1293.743ZM583.958,1313.915L583.958,1314.071L585.458,1314.071L585.458,1313.915L583.958,1313.915Z" transform="rotate(-360 295.241 1075.163)" fill="#83BC41"/>
<path d="M213.858,996.827L214.321,996.237L214.117,996.077L213.858,996.077L213.858,996.827ZM641.895,1130.247L641.863,1130.997L642.395,1131.019L642.591,1130.523L641.895,1130.247ZM557.161,830.793L556.751,831.421L556.753,831.423L557.161,830.793ZM330.737,740.287L330.963,739.571L330.961,739.571L330.737,740.287ZM104.313,635.111L103.84,635.693L103.842,635.694L104.313,635.111ZM29.566,541.483L28.896,541.818L28.897,541.821L29.566,541.483ZM21.296,522.757L21.997,522.49L21.098,520.13L20.563,522.598L21.296,522.757ZM213.546,996.827L213.082,997.417L213.286,997.577L213.546,997.577L213.546,996.827ZM213.394,997.417C343.561,1099.769 471.395,1123.971 641.863,1130.997L641.925,1129.497C471.589,1122.479 344.129,1098.307 214.321,996.237L213.394,997.417ZM642.591,1130.523C657.463,1092.955 660.903,1063.361 660.903,1020.547L659.403,1020.547C659.403,1063.247 655.975,1092.637 641.197,1129.971L642.591,1130.523ZM660.903,1020.547C660.903,974.103 651.519,935.721 632.543,905.609L631.273,906.407C650.059,936.217 659.403,974.297 659.403,1020.547L660.903,1020.547ZM632.543,905.609C613.601,875.553 588.711,850.351 557.569,830.165L556.753,831.423C587.717,851.495 612.451,876.541 631.273,906.407L632.543,905.609ZM557.571,830.165C526.615,809.997 491.449,793.119 452.075,779.525L451.585,780.943C490.857,794.501 525.911,811.329 556.751,831.421L557.571,830.165ZM452.075,779.525C412.743,765.947 372.477,752.681 330.963,739.571L330.511,741.001C372.015,754.107 412.267,767.369 451.585,780.943L452.075,779.525ZM330.961,739.571C289.473,726.625 249.233,712.12 209.928,696.055L209.361,697.443C248.705,713.524 288.985,728.043 330.513,741.003L330.961,739.571ZM209.928,696.055C170.668,680.008 135.622,659.446 104.784,634.527L103.842,635.694C134.799,660.71 169.973,681.345 209.361,697.443L209.928,696.055ZM104.786,634.529C73.974,609.474 49.072,578.349 30.236,541.144L28.897,541.821C47.824,579.206 72.857,610.5 103.84,635.693L104.786,634.529ZM30.237,541.147C27.282,535.236 24.483,529.017 21.997,522.49L20.595,523.024C23.102,529.605 25.921,535.869 28.896,541.818L30.237,541.147ZM20.563,522.598C3.82,599.898 22.487,695.45 60.028,783.201C97.571,870.959 154.049,951.051 213.082,997.417L214.009,996.237C155.227,950.069 98.883,870.211 61.407,782.611C23.928,695.005 5.378,599.79 22.029,522.916L20.563,522.598ZM213.546,997.577L213.858,997.577L213.858,996.077L213.546,996.077L213.546,997.577Z" transform="rotate(-360 337.644 826.502)" fill="#83BC41"/>
<path d="M238.97,632.704L238.507,633.292L239.03,633.704L239.501,633.234L238.97,632.704ZM74.809,398.788L74.114,399.07L74.114,399.07L74.809,398.788ZM42.976,295.954L43.709,295.798L42.445,289.815L42.226,295.927L42.976,295.954ZM369.113,944.952L369.127,944.202L369.127,944.202L369.113,944.952ZM611.767,856.786L612.287,857.328L612.289,857.324L611.767,856.786ZM671.845,770.18L672.531,770.484L672.977,769.478L671.877,769.43L671.845,770.18ZM239.126,632.546L239.59,631.958L239.067,631.546L238.596,632.016L239.126,632.546ZM239.434,632.114C175.739,581.966 114.48,494.7 75.504,398.507L74.114,399.07C113.161,495.439 174.556,582.946 238.507,633.292L239.434,632.114ZM75.504,398.507C61.319,363.434 50.722,328.99 43.709,295.798L42.242,296.109C49.274,329.393 59.898,363.922 74.114,399.07L75.504,398.507ZM42.226,295.927C37.934,415.634 42.142,576.67 86.133,708.468C108.13,774.372 140.092,833.016 185.958,875.52C231.84,918.04 291.599,944.374 369.101,945.702L369.127,944.202C291.985,942.88 232.583,916.684 186.978,874.42C141.357,832.144 109.505,773.752 87.556,707.992C43.653,576.46 39.435,415.649 43.725,295.98L42.226,295.927ZM369.101,945.702C421.159,946.64 467.601,937.73 508.577,921.934L508.037,920.534C467.245,936.26 420.995,945.138 369.127,944.202L369.101,945.702ZM508.577,921.934C549.547,906.14 583.963,884.554 612.287,857.328L611.247,856.246C583.081,883.322 548.837,904.806 508.037,920.534L508.577,921.934ZM612.289,857.324C637.795,832.6 657.825,803.652 672.531,770.484L671.159,769.876C656.529,802.874 636.609,831.662 611.245,856.248L612.289,857.324ZM671.877,769.43C499.207,762.1 372.835,736.838 239.59,631.958L238.663,633.136C372.259,738.294 498.995,763.592 671.813,770.93L671.877,769.43ZM238.596,632.016L238.44,632.172L239.501,633.234L239.657,633.078L238.596,632.016Z" transform="rotate(-360 356.754 620.487)" fill="#83BC41"/>
</svg>
