<svg width="4" height="6" viewBox="0 0 4 6" fill="none" xmlns="http://www.w3.org/2000/svg" xmlns:xlink="http://www.w3.org/1999/xlink">
<path d="M3.694,-0.258L3.694,4.983L3.323,4.983C3.323,4.983 3.211,4.983 3.174,4.959C3.137,4.936 3.1,4.912 3.063,4.864L-0.072,0.917C-0.072,0.977 -0.072,1.037 -0.072,1.097C-0.072,1.157 -0.072,1.205 -0.072,1.265L-0.072,4.995L-0.716,4.995L-0.716,-0.246L-0.344,-0.246C-0.344,-0.246 -0.282,-0.246 -0.257,-0.246C-0.233,-0.246 -0.22,-0.246 -0.195,-0.234C-0.183,-0.234 -0.158,-0.21 -0.146,-0.198C-0.134,-0.186 -0.109,-0.162 -0.096,-0.138L3.038,3.808C3.038,3.748 3.038,3.688 3.025,3.628C3.013,3.568 3.025,3.508 3.025,3.46L3.025,-0.246L3.67,-0.246L3.694,-0.258Z" fill="#83BC41"/>
</svg>
