<svg width="20" height="34" viewBox="0 0 20 34" fill="none" xmlns="http://www.w3.org/2000/svg" xmlns:xlink="http://www.w3.org/1999/xlink">
<path d="M18.544,4.061C18.421,4.309 18.204,4.434 17.956,4.434C17.77,4.434 17.522,4.278 17.213,3.999C16.903,3.72 16.469,3.409 15.943,3.068C15.416,2.726 14.766,2.416 13.961,2.136C13.156,1.857 12.195,1.702 11.019,1.702C9.842,1.702 8.82,1.857 7.953,2.198C7.085,2.54 6.342,2.975 5.723,3.564C5.134,4.154 4.67,4.806 4.36,5.551C4.05,6.296 3.895,7.103 3.895,7.942C3.895,9.028 4.112,9.928 4.577,10.642C5.041,11.356 5.63,11.946 6.404,12.443C7.147,12.94 8.014,13.374 8.975,13.716C9.935,14.057 10.926,14.399 11.917,14.74C12.939,15.082 13.899,15.454 14.859,15.827C15.819,16.199 16.686,16.727 17.429,17.348C18.173,17.938 18.792,18.683 19.257,19.583C19.721,20.484 19.938,21.57 19.938,22.874C19.938,24.178 19.721,25.482 19.257,26.661C18.792,27.841 18.142,28.897 17.244,29.766C16.376,30.635 15.293,31.349 14.023,31.846C12.753,32.342 11.297,32.622 9.687,32.622C7.581,32.622 5.754,32.249 4.236,31.504C2.719,30.759 1.387,29.735 0.241,28.431L0.86,27.437C1.046,27.22 1.263,27.096 1.48,27.096C1.604,27.096 1.789,27.189 2.006,27.375C2.223,27.562 2.471,27.779 2.78,28.058C3.09,28.338 3.431,28.617 3.864,28.928C4.298,29.238 4.763,29.517 5.351,29.797C5.939,30.076 6.559,30.294 7.271,30.48C7.984,30.666 8.82,30.759 9.749,30.759C11.019,30.759 12.134,30.573 13.156,30.169C14.147,29.797 14.983,29.269 15.695,28.586C16.376,27.934 16.903,27.127 17.275,26.227C17.646,25.326 17.832,24.333 17.832,23.278C17.832,22.129 17.615,21.198 17.151,20.484C16.686,19.769 16.098,19.149 15.323,18.652C14.58,18.155 13.713,17.752 12.753,17.41C11.793,17.069 10.802,16.758 9.811,16.448C8.789,16.137 7.829,15.765 6.869,15.392C5.908,15.02 5.041,14.492 4.298,13.871C3.555,13.25 2.935,12.505 2.471,11.574C2.006,10.642 1.789,9.525 1.789,8.128C1.789,7.041 2.006,6.017 2.409,5.023C2.811,4.03 3.4,3.13 4.205,2.385C4.979,1.609 5.97,1.019 7.116,0.553C8.262,0.087 9.594,-0.13 11.081,-0.13C12.753,-0.13 14.24,0.15 15.54,0.677C16.841,1.205 18.08,2.012 19.164,3.099L18.606,4.154L18.544,4.061Z" fill="#FFFFFF"/>
</svg>
