<svg width="4" height="6" viewBox="0 0 4 6" fill="none" xmlns="http://www.w3.org/2000/svg" xmlns:xlink="http://www.w3.org/1999/xlink">
<path d="M2.341,1.514C2.341,1.514 2.292,1.574 2.267,1.598C2.242,1.61 2.205,1.622 2.168,1.622C2.131,1.622 2.081,1.598 2.019,1.562C1.957,1.526 1.883,1.478 1.796,1.43C1.71,1.382 1.61,1.334 1.487,1.298C1.363,1.262 1.214,1.238 1.041,1.238C0.88,1.238 0.731,1.262 0.607,1.298C0.483,1.334 0.372,1.394 0.297,1.466C0.223,1.538 0.149,1.622 0.111,1.718C0.074,1.814 0.05,1.922 0.05,2.042C0.05,2.186 0.087,2.306 0.161,2.402C0.235,2.498 0.334,2.582 0.458,2.654C0.582,2.726 0.718,2.786 0.88,2.834C1.041,2.882 1.189,2.93 1.35,2.99C1.511,3.038 1.672,3.097 1.821,3.169C1.982,3.241 2.118,3.325 2.242,3.421C2.366,3.517 2.465,3.649 2.54,3.793C2.614,3.937 2.651,4.129 2.651,4.345C2.651,4.573 2.614,4.789 2.527,4.993C2.44,5.196 2.329,5.364 2.168,5.52C2.007,5.676 1.821,5.784 1.598,5.868C1.375,5.952 1.115,6 0.83,6C0.483,6 0.161,5.94 -0.124,5.82C-0.409,5.7 -0.657,5.532 -0.867,5.316L-0.657,4.981C-0.657,4.981 -0.607,4.933 -0.582,4.909C-0.557,4.885 -0.52,4.885 -0.483,4.885C-0.446,4.885 -0.409,4.885 -0.372,4.921C-0.334,4.945 -0.285,4.981 -0.235,5.017C-0.186,5.053 -0.124,5.101 -0.05,5.149C0.012,5.196 0.099,5.232 0.186,5.28C0.273,5.316 0.372,5.352 0.483,5.376C0.595,5.4 0.718,5.412 0.855,5.412C1.028,5.412 1.189,5.388 1.326,5.34C1.462,5.292 1.573,5.232 1.672,5.149C1.771,5.065 1.833,4.969 1.895,4.849C1.945,4.729 1.97,4.597 1.97,4.453C1.97,4.297 1.933,4.165 1.858,4.057C1.784,3.961 1.685,3.877 1.561,3.805C1.437,3.733 1.301,3.685 1.14,3.637C0.979,3.589 0.83,3.541 0.669,3.493C0.508,3.445 0.347,3.385 0.198,3.325C0.05,3.265 -0.099,3.169 -0.223,3.073C-0.347,2.966 -0.446,2.834 -0.52,2.678C-0.595,2.522 -0.632,2.33 -0.632,2.09C-0.632,1.91 -0.595,1.73 -0.52,1.55C-0.446,1.382 -0.334,1.226 -0.198,1.094C-0.062,0.962 0.124,0.855 0.322,0.771C0.533,0.687 0.768,0.651 1.041,0.651C1.338,0.651 1.623,0.699 1.871,0.795C2.118,0.891 2.341,1.022 2.527,1.202L2.354,1.538L2.341,1.514Z" fill="#83BC41"/>
</svg>
