<svg width="12" height="14" viewBox="0 0 12 14" fill="none" xmlns="http://www.w3.org/2000/svg" xmlns:xlink="http://www.w3.org/1999/xlink">
<path d="M10.907,0.278L10.907,13.845L9.978,13.845C9.978,13.845 9.699,13.845 9.606,13.783C9.513,13.72 9.421,13.658 9.328,13.534L1.492,3.321C1.492,3.476 1.492,3.631 1.492,3.786C1.492,3.942 1.492,4.066 1.492,4.221L1.492,13.876L-0.118,13.876L-0.118,0.309L0.811,0.309C0.811,0.309 0.966,0.309 1.028,0.309C1.089,0.309 1.12,0.309 1.182,0.34C1.213,0.34 1.275,0.402 1.306,0.434C1.337,0.465 1.399,0.527 1.43,0.589L9.266,10.802C9.266,10.647 9.266,10.492 9.235,10.337C9.204,10.181 9.235,10.026 9.235,9.902L9.235,0.309L10.845,0.309L10.907,0.278Z" fill="#83BC41"/>
</svg>
