<svg width="122" height="412" viewBox="0 0 122 412" fill="none" xmlns="http://www.w3.org/2000/svg" xmlns:xlink="http://www.w3.org/1999/xlink">
<path d="M0.38,-0.246C1.182,-0.055 1.365,-0.131 1.456,0.022C13.897,22.857 28.893,35.403 44.234,46.495C55.107,54.375 65.998,62.139 76.889,69.942C86.046,76.521 94.584,85.433 102.373,97.673C112.899,114.159 118.335,136.191 119.138,163.272C119.685,181.861 119.959,200.526 119.995,219.154C120.105,279.092 120.032,338.992 120.032,398.928L120.032,410.06C118.719,408.108 118.007,407.19 117.387,406.082C110.126,393 102.081,382.52 93.143,375.558C77.728,363.548 62.185,352.188 46.661,340.75C36.591,333.33 26.868,324.724 18.221,311.106C8.169,295.272 2.368,274.808 1.31,248.646C0.817,236.482 0.416,224.242 0.416,212.04C0.343,143.841 0.38,75.68 0.38,7.48C0.38,5.071 0.38,2.661 0.38,-0.246Z" transform="rotate(-186.227 60.213 204.906)" fill="#FFFFFF"/>
</svg>
