<svg width="14" height="12" viewBox="0 0 14 12" fill="none" xmlns="http://www.w3.org/2000/svg" xmlns:xlink="http://www.w3.org/1999/xlink">
<path d="M12.041,11.537L11.323,11.537C11.236,11.537 11.174,11.513 11.112,11.477C11.05,11.441 11.013,11.381 10.988,11.309L9.489,7.699L3.196,7.699L1.697,11.309C1.672,11.369 1.635,11.429 1.573,11.477C1.511,11.525 1.437,11.549 1.35,11.549L0.644,11.549L5.884,-0.865L6.801,-0.865L12.041,11.549L12.041,11.537ZM9.217,7.039L6.603,0.766C6.516,0.562 6.429,0.31 6.343,0.035C6.306,0.179 6.268,0.31 6.219,0.43C6.182,0.55 6.132,0.67 6.083,0.778L3.469,7.039L9.204,7.039L9.217,7.039Z" fill="#595A5C"/>
</svg>
