<svg width="12" height="14" viewBox="0 0 12 14" fill="none" xmlns="http://www.w3.org/2000/svg" xmlns:xlink="http://www.w3.org/1999/xlink">
<path d="M11.068,12.017L10.35,12.017C10.263,12.017 10.201,11.993 10.139,11.957C10.077,11.921 10.04,11.861 10.015,11.79L8.516,8.179L2.223,8.179L0.724,11.79C0.699,11.849 0.662,11.909 0.6,11.957C0.538,12.005 0.464,12.029 0.377,12.029L-0.329,12.029L4.911,-0.385L5.828,-0.385L11.068,12.029L11.068,12.017ZM8.231,7.508L5.617,1.234C5.531,1.031 5.444,0.779 5.357,0.503C5.32,0.647 5.283,0.779 5.233,0.899C5.196,1.019 5.147,1.139 5.097,1.246L2.483,7.508L8.219,7.508L8.231,7.508Z" fill="#595A5C"/>
</svg>
