<svg width="10" height="12" viewBox="0 0 10 12" fill="none" xmlns="http://www.w3.org/2000/svg" xmlns:xlink="http://www.w3.org/1999/xlink">
<path d="M4.595,10.902C5.214,10.902 5.759,10.794 6.242,10.59C6.725,10.386 7.147,10.098 7.481,9.726C7.816,9.354 8.076,8.922 8.262,8.419C8.435,7.915 8.534,7.375 8.534,6.799L8.534,-0.877L9.463,-0.877L9.463,6.799C9.463,7.483 9.352,8.119 9.129,8.719C8.906,9.318 8.584,9.834 8.162,10.266C7.741,10.71 7.233,11.057 6.626,11.309C6.019,11.561 5.35,11.681 4.607,11.681C3.864,11.681 3.182,11.561 2.588,11.309C1.981,11.057 1.473,10.71 1.052,10.266C0.63,9.822 0.308,9.306 0.085,8.719C-0.138,8.131 -0.249,7.483 -0.249,6.799L-0.249,-0.877L0.68,-0.877L0.68,6.787C0.68,7.363 0.767,7.903 0.953,8.407C1.126,8.91 1.386,9.342 1.721,9.714C2.055,10.086 2.464,10.374 2.947,10.578C3.43,10.794 3.988,10.89 4.595,10.89L4.595,10.902Z" fill="#595A5C"/>
</svg>
