<svg width="6" height="6" viewBox="0 0 6 6" fill="none" xmlns="http://www.w3.org/2000/svg" xmlns:xlink="http://www.w3.org/1999/xlink">
<path d="M4.047,2.465L4.047,4.48C3.774,4.672 3.489,4.816 3.18,4.899C2.87,4.995 2.535,5.043 2.164,5.043C1.73,5.043 1.334,4.983 0.987,4.851C0.64,4.72 0.343,4.54 0.095,4.3C-0.153,4.06 -0.339,3.784 -0.475,3.448C-0.611,3.112 -0.673,2.752 -0.673,2.357C-0.673,1.961 -0.611,1.589 -0.475,1.265C-0.351,0.941 -0.165,0.653 0.083,0.414C0.318,0.174 0.615,-0.006 0.962,-0.138C1.309,-0.27 1.693,-0.33 2.114,-0.33C2.325,-0.33 2.523,-0.318 2.709,-0.282C2.895,-0.258 3.068,-0.21 3.217,-0.15C3.365,-0.09 3.514,-0.018 3.65,0.054C3.787,0.126 3.911,0.222 4.022,0.33L3.811,0.653C3.811,0.653 3.737,0.737 3.688,0.749C3.638,0.761 3.576,0.749 3.514,0.713C3.452,0.677 3.39,0.641 3.304,0.593C3.217,0.546 3.13,0.498 3.019,0.45C2.907,0.402 2.771,0.366 2.622,0.33C2.474,0.294 2.288,0.282 2.077,0.282C1.767,0.282 1.495,0.33 1.247,0.426C0.999,0.522 0.789,0.665 0.615,0.833C0.442,1.013 0.306,1.229 0.219,1.481C0.132,1.733 0.083,2.021 0.083,2.345C0.083,2.669 0.132,2.968 0.231,3.232C0.33,3.496 0.467,3.712 0.652,3.892C0.826,4.072 1.049,4.216 1.309,4.312C1.569,4.408 1.854,4.456 2.176,4.456C2.424,4.456 2.647,4.432 2.845,4.372C3.043,4.312 3.229,4.24 3.415,4.144L3.415,2.992L2.573,2.992C2.573,2.992 2.486,2.98 2.461,2.956C2.436,2.932 2.424,2.896 2.424,2.86L2.424,2.453L4.084,2.453L4.047,2.465Z" fill="#83BC41"/>
</svg>
