<svg width="14" height="14" viewBox="0 0 14 14" fill="none" xmlns="http://www.w3.org/2000/svg" xmlns:xlink="http://www.w3.org/1999/xlink">
<path d="M12.2,12.017L11.481,12.017C11.394,12.017 11.332,11.993 11.27,11.957C11.209,11.921 11.171,11.861 11.147,11.79L9.648,8.179L3.354,8.179L1.855,11.79C1.831,11.849 1.794,11.909 1.732,11.957C1.67,12.005 1.595,12.029 1.509,12.029L0.802,12.029L6.043,-0.385L6.959,-0.385L12.2,12.029L12.2,12.017ZM9.363,7.508L6.749,1.234C6.662,1.031 6.575,0.779 6.489,0.503C6.451,0.647 6.414,0.779 6.365,0.899C6.328,1.019 6.278,1.139 6.229,1.246L3.615,7.508L9.35,7.508L9.363,7.508Z" fill="#595A5C"/>
</svg>
