<svg width="12" height="14" viewBox="0 0 12 14" fill="none" xmlns="http://www.w3.org/2000/svg" xmlns:xlink="http://www.w3.org/1999/xlink">
<path d="M10.533,0.273L10.533,13.84L9.604,13.84C9.604,13.84 9.325,13.84 9.232,13.778C9.139,13.716 9.046,13.653 8.953,13.529L1.118,3.316C1.118,3.471 1.118,3.626 1.118,3.781C1.118,3.937 1.118,4.061 1.118,4.216L1.118,13.871L-0.493,13.871L-0.493,0.304L0.436,0.304C0.436,0.304 0.591,0.304 0.653,0.304C0.715,0.304 0.746,0.304 0.808,0.336C0.839,0.336 0.901,0.398 0.932,0.429C0.963,0.46 1.025,0.522 1.056,0.584L8.891,10.797C8.891,10.642 8.891,10.487 8.86,10.332C8.829,10.177 8.86,10.021 8.86,9.897L8.86,0.304L10.471,0.304L10.533,0.273Z" fill="#83BC41"/>
</svg>
