<svg width="144" height="144" viewBox="0 0 144 144" fill="none" xmlns="http://www.w3.org/2000/svg" xmlns:xlink="http://www.w3.org/1999/xlink">
<path d="M72,0C33.6,0 0,30.88 0,72C0,88.96 5.92,104.56 15.76,116.88L0,132.72L11.28,144L27.04,128.24C39.44,138.08 55.04,144 72,144C90.4,144 108.88,136.96 122.88,122.88C136.96,108.88 144,90.4 144,72L144,0L72,0ZM102.64,74.08L61.36,111.12C60.08,112.32 58.08,112.24 56.88,111.04C55.76,109.92 55.6,108.16 56.56,106.88L76.08,80.24L43.68,77.04C40.16,76.72 38.64,72.32 41.28,69.92L82.56,32.88C83.84,31.68 85.84,31.76 87.04,32.96C88.16,34.08 88.32,35.84 87.36,37.12L67.84,63.76L100.24,66.96C103.84,67.28 105.28,71.68 102.64,74.08Z" fill="#496422"/>
</svg>
