<svg width="14" height="14" viewBox="0 0 14 14" fill="none" xmlns="http://www.w3.org/2000/svg" xmlns:xlink="http://www.w3.org/1999/xlink">
<path d="M13.311,7.046C13.311,8.07 13.156,9.002 12.847,9.84C12.537,10.678 12.072,11.423 11.484,12.044C10.895,12.665 10.183,13.131 9.378,13.472C8.542,13.814 7.644,13.969 6.652,13.969C5.661,13.969 4.763,13.814 3.927,13.472C3.122,13.131 2.41,12.665 1.821,12.044C1.233,11.423 0.768,10.709 0.458,9.84C0.149,9.002 -0.037,8.07 -0.037,7.046C-0.037,6.021 0.118,5.09 0.458,4.252C0.768,3.414 1.233,2.669 1.821,2.048C2.41,1.427 3.122,0.961 3.927,0.62C4.732,0.278 5.661,0.123 6.652,0.123C7.644,0.123 8.542,0.278 9.378,0.62C10.183,0.961 10.895,1.427 11.484,2.048C12.072,2.669 12.537,3.383 12.847,4.252C13.156,5.09 13.311,6.021 13.311,7.046ZM11.422,7.046C11.422,6.208 11.298,5.463 11.081,4.811C10.864,4.159 10.524,3.6 10.121,3.134C9.719,2.669 9.192,2.327 8.604,2.079C8.015,1.83 7.365,1.706 6.622,1.706C5.878,1.706 5.228,1.83 4.639,2.079C4.051,2.327 3.555,2.669 3.122,3.134C2.688,3.6 2.379,4.159 2.162,4.811C1.945,5.463 1.821,6.208 1.821,7.046C1.821,7.884 1.945,8.629 2.162,9.281C2.379,9.933 2.719,10.492 3.122,10.957C3.524,11.423 4.051,11.765 4.639,12.013C5.228,12.261 5.878,12.386 6.622,12.386C7.365,12.386 8.015,12.261 8.604,12.013C9.192,11.765 9.688,11.423 10.121,10.957C10.524,10.492 10.864,9.933 11.081,9.281C11.298,8.629 11.422,7.884 11.422,7.046Z" fill="#83BC41"/>
</svg>
