<svg width="290" height="888" viewBox="0 0 290 888" fill="none" xmlns="http://www.w3.org/2000/svg" xmlns:xlink="http://www.w3.org/1999/xlink">
<path d="M-0.792,0.949C1.146,1.362 1.587,1.197 1.807,1.528C31.854,50.88 68.069,77.995 105.121,101.969C131.38,118.998 157.682,135.779 183.984,152.644C206.1,166.862 226.72,186.124 245.532,212.577C270.954,248.207 284.082,295.823 286.02,354.351C287.342,394.529 288.004,434.869 288.092,475.129C288.356,604.669 288.18,734.125 288.18,863.665L288.18,887.721C285.008,883.505 283.29,881.521 281.792,879.125C264.256,850.853 244.828,828.201 223.24,813.155C186.01,787.199 148.474,762.647 110.981,737.929C86.661,721.891 63.179,703.291 42.296,673.861C18.02,639.637 4.01,595.409 1.455,538.865C0.265,512.577 -0.704,486.123 -0.704,459.753C-0.88,312.357 -0.792,165.044 -0.792,17.648C-0.792,12.44 -0.792,7.232 -0.792,0.949Z" transform="rotate(150 143.711 444.335)" fill="#FFFFFF"/>
</svg>
