<svg width="10" height="14" viewBox="0 0 10 14" fill="none" xmlns="http://www.w3.org/2000/svg" xmlns:xlink="http://www.w3.org/1999/xlink">
<path d="M8.853,2.389C8.853,2.389 8.73,2.545 8.668,2.607C8.606,2.638 8.513,2.669 8.42,2.669C8.327,2.669 8.203,2.607 8.048,2.514C7.893,2.421 7.708,2.296 7.491,2.172C7.274,2.048 7.026,1.924 6.716,1.831C6.407,1.738 6.035,1.675 5.602,1.675C5.199,1.675 4.827,1.738 4.518,1.831C4.208,1.924 3.929,2.079 3.743,2.265C3.557,2.452 3.372,2.669 3.279,2.917C3.186,3.166 3.124,3.445 3.124,3.755C3.124,4.128 3.217,4.438 3.403,4.687C3.588,4.935 3.836,5.152 4.146,5.339C4.456,5.525 4.796,5.68 5.199,5.804C5.602,5.929 5.973,6.053 6.376,6.208C6.778,6.332 7.181,6.487 7.553,6.674C7.955,6.86 8.296,7.077 8.606,7.325C8.915,7.574 9.163,7.915 9.349,8.288C9.535,8.66 9.628,9.157 9.628,9.716C9.628,10.306 9.535,10.865 9.318,11.392C9.101,11.92 8.822,12.355 8.42,12.758C8.017,13.162 7.553,13.441 6.995,13.659C6.438,13.876 5.787,14 5.075,14C4.208,14 3.403,13.845 2.69,13.534C1.978,13.224 1.359,12.789 0.832,12.23L1.359,11.361C1.359,11.361 1.482,11.237 1.544,11.175C1.606,11.113 1.699,11.113 1.792,11.113C1.885,11.113 1.978,11.113 2.071,11.206C2.164,11.268 2.288,11.361 2.412,11.454C2.535,11.548 2.69,11.672 2.876,11.796C3.031,11.92 3.248,12.013 3.465,12.137C3.681,12.23 3.929,12.324 4.208,12.386C4.487,12.448 4.796,12.479 5.137,12.479C5.571,12.479 5.973,12.417 6.314,12.293C6.655,12.168 6.933,12.013 7.181,11.796C7.429,11.579 7.584,11.33 7.738,11.02C7.862,10.709 7.924,10.368 7.924,9.995C7.924,9.592 7.831,9.25 7.646,8.971C7.46,8.722 7.212,8.505 6.902,8.319C6.593,8.133 6.252,8.008 5.849,7.884C5.447,7.76 5.075,7.636 4.672,7.512C4.27,7.388 3.867,7.232 3.496,7.077C3.124,6.922 2.752,6.674 2.443,6.425C2.133,6.146 1.885,5.804 1.699,5.401C1.513,4.997 1.421,4.5 1.421,3.88C1.421,3.414 1.513,2.948 1.699,2.483C1.885,2.048 2.164,1.644 2.504,1.303C2.845,0.961 3.31,0.682 3.805,0.465C4.332,0.247 4.92,0.154 5.602,0.154C6.345,0.154 7.057,0.278 7.677,0.527C8.296,0.775 8.853,1.117 9.318,1.582L8.884,2.452L8.853,2.389Z" fill="#83BC41"/>
</svg>
