<svg width="412" height="672" viewBox="0 0 412 672" fill="none" xmlns="http://www.w3.org/2000/svg" xmlns:xlink="http://www.w3.org/1999/xlink">
<path d="M0.659,-0.305C3.412,0.008 4.037,-0.117 4.35,0.133C47.013,37.479 98.434,57.998 151.044,76.139C188.327,89.025 225.674,101.724 263.02,114.486C294.422,125.245 323.698,139.821 350.41,159.839C386.506,186.801 405.146,222.833 407.9,267.123C409.776,297.525 410.714,328.051 410.84,358.517C411.214,456.541 410.964,554.505 410.964,652.531L410.964,670.733C406.46,667.543 404.02,666.043 401.894,664.229C376.996,642.833 349.41,625.693 318.756,614.309C265.898,594.665 212.6,576.087 159.364,557.383C124.833,545.247 91.49,531.171 61.839,508.901C27.371,483.003 7.478,449.535 3.85,406.747C2.161,386.855 0.784,366.837 0.784,346.881C0.534,235.343 0.659,123.869 0.659,12.332C0.659,8.391 0.659,4.45 0.659,-0.305Z" transform="rotate(-60.237 205.837 335.215)" fill="#FFFFFF"/>
</svg>
