<svg width="30" height="34" viewBox="0 0 30 34" fill="none" xmlns="http://www.w3.org/2000/svg" xmlns:xlink="http://www.w3.org/1999/xlink">
<path d="M28.499,32.28L26.703,32.28C26.486,32.28 26.331,32.218 26.176,32.125C26.021,32.032 25.928,31.877 25.866,31.69L22.119,22.346L6.386,22.346L2.639,31.69C2.577,31.846 2.484,32.001 2.329,32.125C2.174,32.249 1.988,32.311 1.772,32.311L0.006,32.311L13.107,0.181L15.399,0.181L28.499,32.311L28.499,32.28ZM21.407,20.608L14.872,4.372C14.655,3.844 14.438,3.192 14.222,2.478C14.129,2.85 14.036,3.192 13.912,3.502C13.819,3.813 13.695,4.123 13.571,4.403L7.037,20.608L21.376,20.608L21.407,20.608Z" fill="#FFFFFF"/>
</svg>
