<svg width="14" height="32" viewBox="0 0 14 32" fill="none" xmlns="http://www.w3.org/2000/svg" xmlns:xlink="http://www.w3.org/1999/xlink">
<path d="M12.996,20.916C12.996,22.716 12.779,24.3 12.346,25.697C11.912,27.063 11.262,28.242 10.456,29.174C9.62,30.105 8.629,30.819 7.452,31.285C6.275,31.75 4.944,31.999 3.457,31.999C2.776,31.999 2.094,31.937 1.382,31.843C0.701,31.75 -0.043,31.564 -0.755,31.347C-0.755,31.129 -0.724,30.912 -0.693,30.726C-0.693,30.509 -0.631,30.291 -0.6,30.105C-0.6,29.981 -0.507,29.857 -0.445,29.732C-0.352,29.639 -0.228,29.577 -0.012,29.577C0.112,29.577 0.298,29.577 0.484,29.67C0.67,29.732 0.886,29.795 1.165,29.826C1.444,29.857 1.723,29.95 2.063,29.981C2.404,30.043 2.807,30.074 3.271,30.074C4.417,30.074 5.439,29.888 6.368,29.515C7.297,29.143 8.072,28.584 8.722,27.839C9.372,27.094 9.868,26.131 10.209,25.014C10.549,23.865 10.704,22.53 10.704,20.978L10.704,-0.474L13.027,-0.474L13.027,20.916L12.996,20.916Z" fill="#FFFFFF"/>
</svg>
