<svg width="118" height="118" viewBox="0 0 118 118" fill="none" xmlns="http://www.w3.org/2000/svg" xmlns:xlink="http://www.w3.org/1999/xlink">
<path d="M49.328,61.25L-0.596,61.25L-0.596,117.502L49.328,117.502L49.328,61.25Z" fill="#FFFFFF"/>
<path d="M49.328,54.731L49.328,0L24.087,0C10.46,0 -0.596,11.083 -0.596,24.742L-0.596,54.731L49.328,54.731Z" fill="#FFFFFF"/>
<path d="M113.871,86.706C110.65,89.935 106.716,92.48 102.071,94.343C94.359,97.416 85.533,98.751 77.418,96.578C68.127,94.064 61.716,87.731 58.155,80.684C57.752,84.005 58.124,117.533 58,117.533L116.596,117.533L116.596,83.602C115.76,84.688 114.831,85.744 113.871,86.737L113.871,86.706Z" fill="#FFFFFF"/>
<path d="M116.596,42.903L116.596,0L65.681,0C65.061,2.111 64.752,4.284 64.752,6.55C64.752,10.555 65.588,13.846 67.291,16.453C68.994,19.061 71.224,21.296 73.981,23.128C76.737,24.96 79.896,26.512 83.427,27.754C86.957,28.995 90.55,30.237 94.266,31.448C97.983,32.659 101.606,34.024 105.106,35.484C108.637,36.943 111.765,38.805 114.552,41.009C115.295,41.599 115.977,42.22 116.627,42.872L116.596,42.903Z" fill="#FFFFFF"/>
<path d="M75.777,60.474C87.422,69.663 98.85,71.836 114.118,72.457C115.45,69.104 115.76,66.435 115.76,62.616C115.76,58.456 114.924,55.01 113.22,52.341C111.517,49.64 109.287,47.405 106.531,45.604C103.743,43.803 100.615,42.282 97.085,41.071C93.554,39.861 89.961,38.65 86.245,37.501C82.528,36.322 78.905,35.018 75.405,33.59C71.875,32.162 68.747,30.299 65.959,28.064C63.172,25.829 60.942,23.004 59.27,19.651C58.991,19.123 58.743,18.564 58.527,17.975C55.553,31.82 65.216,52.247 75.746,60.536L75.777,60.474Z" fill="#83BC41"/>
<path d="M74.6,61.995C68.871,57.494 63.389,49.639 59.889,41.009C58.619,37.843 57.659,34.769 57.04,31.789C56.266,53.272 58.557,89.593 86.245,90.059C90.891,90.152 95.041,89.345 98.726,87.948C102.381,86.52 105.478,84.595 107.986,82.143C110.278,79.939 112.074,77.331 113.375,74.382C97.89,73.73 86.555,71.464 74.6,62.026L74.6,61.995Z" fill="#83BC41"/>
</svg>
