<svg width="1320" height="1320" viewBox="0 0 1320 1320" fill="none" xmlns="http://www.w3.org/2000/svg" xmlns:xlink="http://www.w3.org/1999/xlink">
<path d="M5.93,687.698L5.93,686.948L5.18,686.948L5.18,687.698L5.93,687.698ZM563.33,687.698L564.08,687.698L564.08,686.948L563.33,686.948L563.33,687.698ZM563.33,1314.07L563.33,1314.82L564.08,1314.82L564.08,1314.07L563.33,1314.07ZM5.93,1314.07L5.18,1314.07L5.18,1314.82L5.93,1314.82L5.93,1314.07ZM5.93,688.448L563.33,688.448L563.33,686.948L5.93,686.948L5.93,688.448ZM562.58,687.698L562.58,1314.07L564.08,1314.07L564.08,687.698L562.58,687.698ZM563.33,1313.32L5.93,1313.32L5.93,1314.82L563.33,1314.82L563.33,1313.32ZM6.68,1314.07L6.68,687.698L5.18,687.698L5.18,1314.07L6.68,1314.07Z" fill="#83BC41"/>
<path d="M563.174,615.292L562.424,615.292L562.424,616.042L563.174,616.042L563.174,615.292ZM563.174,5.93L563.924,5.93L563.924,5.18L563.174,5.18L563.174,5.93ZM5.93,615.292L5.18,615.292L5.18,616.042L5.93,616.042L5.93,615.292ZM563.924,615.292L563.924,5.93L562.424,5.93L562.424,615.292L563.924,615.292ZM563.174,5.18L281.196,5.18L281.196,6.68L563.174,6.68L563.174,5.18ZM281.196,5.18C128.793,5.18 5.18,128.792 5.18,281.196L6.68,281.196C6.68,129.621 129.621,6.68 281.196,6.68L281.196,5.18ZM5.18,281.196L5.18,615.292L6.68,615.292L6.68,281.196L5.18,281.196ZM5.93,616.042L563.33,616.042L563.33,614.542L5.93,614.542L5.93,616.042ZM563.33,614.542L563.174,614.542L563.174,616.042L563.33,616.042L563.33,614.542Z" fill="#83BC41"/>
<path d="M1151.938,1056.125L1152.216,1056.821L1152.216,1056.821L1151.938,1056.125ZM876.672,1080.78L876.866,1080.056L876.866,1080.056L876.672,1080.78ZM661.795,903.823L662.464,903.486L661.343,901.261L661.05,903.735L661.795,903.823ZM1314.226,1314.071L1314.226,1314.821L1314.976,1314.821L1314.976,1314.071L1314.226,1314.071ZM1314.226,936.281L1314.976,936.281L1314.976,934.076L1313.632,935.824L1314.226,936.281ZM1283.112,970.705C1247.3,1006.517 1203.538,1034.708 1151.66,1055.428L1152.216,1056.821C1204.264,1036.033 1248.202,1007.736 1284.172,971.766L1283.112,970.705ZM1151.66,1055.428C1065.78,1089.718 967.33,1104.345 876.866,1080.056L876.476,1081.505C967.34,1105.901 1066.132,1091.193 1152.216,1056.821L1151.66,1055.428ZM876.866,1080.056C773.331,1052.343 701.863,981.661 662.464,903.486L661.125,904.161C700.685,982.656 772.468,1053.665 876.478,1081.505L876.866,1080.056ZM661.05,903.735C659.951,912.995 659.386,943.295 659.131,983.456C658.874,1023.647 658.928,1073.78 659.074,1122.759C659.221,1171.735 659.46,1219.571 659.574,1255.151C659.632,1272.941 659.658,1287.671 659.626,1297.951C659.61,1303.091 659.579,1307.115 659.531,1309.855C659.507,1311.225 659.478,1312.267 659.445,1312.963C659.428,1313.313 659.411,1313.563 659.394,1313.719C659.39,1313.757 659.386,1313.787 659.383,1313.807C659.38,1313.831 659.378,1313.839 659.379,1313.835C659.379,1313.835 659.383,1313.817 659.385,1313.811C659.389,1313.799 659.405,1313.757 659.415,1313.735C659.433,1313.699 659.497,1313.603 659.542,1313.549C659.632,1313.471 659.902,1313.341 660.078,1313.321L660.078,1314.821C660.26,1314.799 660.535,1314.667 660.63,1314.583C660.681,1314.523 660.75,1314.419 660.773,1314.371C660.813,1314.287 660.832,1314.207 660.841,1314.169C660.862,1314.079 660.875,1313.977 660.886,1313.879C660.907,1313.677 660.926,1313.391 660.943,1313.033C660.977,1312.315 661.006,1311.255 661.031,1309.881C661.079,1307.131 661.11,1303.097 661.126,1297.955C661.158,1287.669 661.132,1272.937 661.074,1255.145C660.96,1219.557 660.721,1171.737 660.574,1122.755C660.428,1073.776 660.375,1023.649 660.63,983.466C660.887,943.253 661.453,913.065 662.539,903.912L661.05,903.735ZM660.078,1314.821L1314.226,1314.821L1314.226,1313.321L660.078,1313.321L660.078,1314.821ZM1314.976,1314.071L1314.976,936.281L1313.476,936.281L1313.476,1314.071L1314.976,1314.071ZM1313.632,935.824C1304.288,947.972 1294.166,959.651 1283.112,970.705L1284.172,971.766C1295.276,960.662 1305.44,948.933 1314.822,936.738L1313.632,935.824Z" fill="#83BC41"/>
<path d="M1314.227,5.93L1314.977,5.93L1314.977,5.18L1314.227,5.18L1314.227,5.93ZM745.748,5.93L745.748,5.18L745.186,5.18L745.028,5.719L745.748,5.93ZM838.284,263.408L838.697,262.782L838.696,262.78L838.284,263.408ZM1064.707,356.256L1064.473,356.968L1064.473,356.968L1064.707,356.256ZM1291.131,462.836L1291.603,462.252L1291.599,462.248L1291.131,462.836ZM1314.227,483.59L1314.977,483.59L1314.977,483.274L1314.751,483.054L1314.227,483.59ZM1314.977,483.746L1314.977,5.93L1313.477,5.93L1313.477,483.746L1314.977,483.746ZM1314.227,5.18L745.748,5.18L745.748,6.68L1314.227,6.68L1314.227,5.18ZM745.028,5.719C738.142,29.193 734.543,53.608 734.543,78.803L736.043,78.803C736.043,53.752 739.621,29.48 746.468,6.141L745.028,5.719ZM734.543,78.803C734.543,123.38 743.927,160.36 762.908,189.538L764.166,188.72C745.384,159.848 736.043,123.174 736.043,78.803L734.543,78.803ZM762.908,189.538C781.849,218.654 806.736,243.538 837.871,264.034L838.696,262.78C807.725,242.392 782.988,217.654 764.166,188.72L762.908,189.538ZM837.87,264.032C868.824,284.512 903.991,301.704 943.365,315.61L943.865,314.196C904.592,300.326 869.538,283.186 838.697,262.782L837.87,264.032ZM943.365,315.61C982.695,329.5 1022.959,343.234 1064.473,356.968L1064.943,355.544C1023.439,341.812 983.183,328.082 943.865,314.196L943.365,315.61ZM1064.473,356.968C1105.809,370.538 1146.207,385.512 1185.511,401.888L1186.089,400.504C1146.747,384.112 1106.311,369.124 1064.941,355.542L1064.473,356.968ZM1185.511,401.888C1224.775,418.248 1259.825,438.812 1290.663,463.422L1291.599,462.248C1260.645,437.548 1225.473,416.914 1186.089,400.504L1185.511,401.888ZM1290.661,463.418C1298.751,469.954 1306.379,476.958 1313.703,484.126L1314.751,483.054C1307.407,475.864 1299.741,468.826 1291.603,462.252L1290.661,463.418ZM1313.477,483.59L1313.477,483.746L1314.977,483.746L1314.977,483.59L1313.477,483.59Z" fill="#83BC41"/>
<path d="M858.57,663.823L859.033,663.233L858.829,663.073L858.57,663.073L858.57,663.823ZM1286.606,797.243L1286.574,797.993L1287.106,798.015L1287.302,797.519L1286.606,797.243ZM1201.872,497.789L1201.462,498.417L1201.464,498.419L1201.872,497.789ZM975.448,407.283L975.674,406.567L975.672,406.567L975.448,407.283ZM749.025,302.107L748.552,302.689L748.553,302.69L749.025,302.107ZM674.278,208.479L673.607,208.814L673.609,208.817L674.278,208.479ZM666.008,189.753L666.709,189.486L665.81,187.126L665.275,189.594L666.008,189.753ZM858.257,663.823L857.794,664.413L857.998,664.573L858.257,664.573L858.257,663.823ZM858.106,664.413C988.272,766.765 1116.106,790.967 1286.574,797.993L1286.636,796.493C1116.3,789.475 988.84,765.303 859.033,663.233L858.106,664.413ZM1287.302,797.519C1302.174,759.951 1305.614,730.357 1305.614,687.543L1304.114,687.543C1304.114,730.243 1300.686,759.633 1285.908,796.967L1287.302,797.519ZM1305.614,687.543C1305.614,641.099 1296.23,602.717 1277.254,572.605L1275.984,573.403C1294.77,603.213 1304.114,641.293 1304.114,687.543L1305.614,687.543ZM1277.254,572.605C1258.312,542.549 1233.422,517.347 1202.28,497.161L1201.464,498.419C1232.428,518.491 1257.162,543.537 1275.984,573.403L1277.254,572.605ZM1202.282,497.161C1171.326,476.993 1136.16,460.115 1096.786,446.521L1096.296,447.939C1135.568,461.497 1170.622,478.325 1201.462,498.417L1202.282,497.161ZM1096.786,446.521C1057.454,432.943 1017.188,419.677 975.674,406.567L975.222,407.997C1016.726,421.103 1056.978,434.365 1096.296,447.939L1096.786,446.521ZM975.672,406.567C934.184,393.621 893.944,379.116 854.64,363.051L854.073,364.439C893.416,380.52 933.696,395.039 975.224,407.999L975.672,406.567ZM854.64,363.051C815.38,347.004 780.333,326.442 749.496,301.523L748.553,302.69C779.511,327.706 814.685,348.341 854.073,364.439L854.64,363.051ZM749.498,301.525C718.686,276.47 693.784,245.345 674.947,208.14L673.609,208.817C692.536,246.202 717.569,277.496 748.552,302.689L749.498,301.525ZM674.949,208.143C671.994,202.232 669.195,196.013 666.709,189.486L665.307,190.02C667.814,196.601 670.633,202.865 673.607,208.814L674.949,208.143ZM665.275,189.594C648.532,266.894 667.199,362.446 704.74,450.197C742.283,537.955 798.76,618.047 857.794,664.413L858.721,663.233C799.939,617.065 743.595,537.207 706.119,449.607C668.64,362.001 650.09,266.786 666.741,189.912L665.275,189.594ZM858.257,664.573L858.57,664.573L858.57,663.073L858.257,663.073L858.257,664.573Z" fill="#83BC41"/>
<path d="M845.462,711.73L844.998,712.318L845.521,712.73L845.992,712.26L845.462,711.73ZM681.3,477.815L680.605,478.096L680.605,478.097L681.3,477.815ZM649.467,374.98L650.201,374.825L648.936,368.842L648.717,374.954L649.467,374.98ZM975.604,1023.978L975.618,1023.228L975.618,1023.228L975.604,1023.978ZM1218.258,935.812L1218.778,936.354L1218.78,936.35L1218.258,935.812ZM1278.336,849.206L1279.022,849.51L1279.468,848.504L1278.368,848.456L1278.336,849.206ZM845.618,711.572L846.082,710.984L845.558,710.572L845.087,711.042L845.618,711.572ZM845.926,711.14C782.23,660.992 720.972,573.727 681.996,477.534L680.605,478.097C719.653,574.466 781.047,661.972 844.998,712.318L845.926,711.14ZM681.996,477.534C667.811,442.461 657.213,408.017 650.201,374.825L648.733,375.135C655.765,408.42 666.39,442.948 680.605,478.096L681.996,477.534ZM648.717,374.954C644.425,494.661 648.633,655.696 692.624,787.494C714.622,853.398 746.583,912.042 792.449,954.546C838.332,997.066 898.09,1023.4 975.592,1024.728L975.618,1023.228C898.476,1021.906 839.074,995.71 793.469,953.446C747.848,911.17 715.996,852.778 694.047,787.018C650.145,655.486 645.926,494.676 650.216,375.007L648.717,374.954ZM975.592,1024.728C1027.65,1025.666 1074.092,1016.756 1115.068,1000.96L1114.528,999.56C1073.736,1015.286 1027.486,1024.164 975.618,1023.228L975.592,1024.728ZM1115.068,1000.96C1156.038,985.166 1190.454,963.58 1218.778,936.354L1217.738,935.272C1189.572,962.348 1155.328,983.832 1114.528,999.56L1115.068,1000.96ZM1218.78,936.35C1244.286,911.626 1264.316,882.678 1279.022,849.51L1277.65,848.902C1263.02,881.9 1243.1,910.688 1217.736,935.274L1218.78,936.35ZM1278.368,848.456C1105.698,841.126 979.326,815.864 846.082,710.984L845.154,712.162C978.75,817.32 1105.486,842.618 1278.304,849.956L1278.368,848.456ZM845.087,711.042L844.931,711.198L845.992,712.26L846.148,712.104L845.087,711.042Z" fill="#83BC41"/>
</svg>
