<svg width="6" height="12" viewBox="0 0 6 12" fill="none" xmlns="http://www.w3.org/2000/svg" xmlns:xlink="http://www.w3.org/1999/xlink">
<path d="M4.798,7.399C4.798,8.095 4.712,8.707 4.538,9.246C4.365,9.774 4.105,10.23 3.783,10.59C3.448,10.949 3.052,11.225 2.581,11.405C2.11,11.585 1.577,11.681 0.983,11.681C0.71,11.681 0.438,11.657 0.153,11.621C-0.12,11.585 -0.417,11.513 -0.702,11.429C-0.702,11.345 -0.69,11.261 -0.677,11.189C-0.677,11.105 -0.652,11.021 -0.64,10.949C-0.64,10.901 -0.603,10.853 -0.578,10.806C-0.541,10.77 -0.491,10.746 -0.405,10.746C-0.355,10.746 -0.281,10.746 -0.206,10.782C-0.132,10.806 -0.045,10.83 0.066,10.842C0.178,10.853 0.289,10.889 0.425,10.901C0.562,10.925 0.723,10.937 0.908,10.937C1.367,10.937 1.776,10.865 2.147,10.722C2.519,10.578 2.829,10.362 3.089,10.074C3.349,9.786 3.547,9.414 3.683,8.982C3.82,8.539 3.882,8.023 3.882,7.423L3.882,-0.865L4.811,-0.865L4.811,7.399L4.798,7.399Z" fill="#595A5C"/>
</svg>
