<svg width="4" height="6" viewBox="0 0 4 6" fill="none" xmlns="http://www.w3.org/2000/svg" xmlns:xlink="http://www.w3.org/1999/xlink">
<path d="M1.485,5.376C1.708,5.376 1.906,5.34 2.08,5.268C2.253,5.196 2.402,5.088 2.526,4.956C2.65,4.825 2.736,4.669 2.811,4.489C2.885,4.309 2.91,4.105 2.91,3.889L2.91,0.71L3.641,0.71L3.641,3.889C3.641,4.189 3.591,4.477 3.492,4.729C3.393,4.98 3.257,5.208 3.071,5.4C2.885,5.592 2.662,5.736 2.39,5.844C2.129,5.952 1.82,6 1.485,6C1.151,6 0.853,5.952 0.581,5.844C0.308,5.736 0.085,5.592 -0.1,5.4C-0.286,5.208 -0.435,4.992 -0.534,4.729C-0.633,4.465 -0.683,4.189 -0.683,3.889L-0.683,0.71L0.048,0.71L0.048,3.889C0.048,4.105 0.085,4.309 0.147,4.489C0.209,4.669 0.308,4.825 0.432,4.956C0.556,5.088 0.705,5.196 0.878,5.268C1.052,5.34 1.262,5.376 1.485,5.376Z" fill="#83BC41"/>
</svg>
