<svg width="30" height="32" viewBox="0 0 30 32" fill="none" xmlns="http://www.w3.org/2000/svg" xmlns:xlink="http://www.w3.org/1999/xlink">
<path d="M28.103,31.626L26.307,31.626C26.09,31.626 25.935,31.564 25.78,31.471C25.626,31.378 25.533,31.223 25.471,31.036L21.723,21.692L5.99,21.692L2.243,31.036C2.181,31.192 2.088,31.347 1.933,31.471C1.778,31.595 1.593,31.657 1.376,31.657L-0.39,31.657L12.711,-0.474L15.003,-0.474L28.103,31.657L28.103,31.626ZM21.042,19.985L14.507,3.748C14.29,3.221 14.074,2.569 13.857,1.855C13.764,2.227 13.671,2.569 13.547,2.879C13.454,3.19 13.33,3.5 13.206,3.779L6.672,19.985L21.011,19.985L21.042,19.985Z" fill="#FFFFFF"/>
</svg>
