<svg width="6" height="6" viewBox="0 0 6 6" fill="none" xmlns="http://www.w3.org/2000/svg" xmlns:xlink="http://www.w3.org/1999/xlink">
<path d="M4.885,3.904C4.885,3.904 4.959,3.916 4.984,3.952L5.269,4.252C5.046,4.504 4.774,4.696 4.464,4.839C4.154,4.983 3.77,5.043 3.324,5.043C2.94,5.043 2.581,4.983 2.271,4.851C1.949,4.72 1.689,4.54 1.454,4.3C1.231,4.06 1.057,3.784 0.933,3.448C0.809,3.124 0.747,2.752 0.747,2.357C0.747,1.961 0.809,1.601 0.946,1.277C1.069,0.953 1.255,0.665 1.491,0.426C1.726,0.186 1.999,0.006 2.333,-0.126C2.655,-0.258 3.014,-0.318 3.411,-0.318C3.807,-0.318 4.142,-0.258 4.427,-0.138C4.724,-0.018 4.984,0.138 5.207,0.354L4.972,0.677C4.972,0.677 4.935,0.725 4.91,0.737C4.885,0.749 4.86,0.761 4.811,0.761C4.761,0.761 4.712,0.737 4.65,0.689C4.588,0.641 4.501,0.593 4.39,0.533C4.278,0.474 4.154,0.426 3.993,0.378C3.832,0.33 3.634,0.306 3.411,0.306C3.126,0.306 2.878,0.354 2.643,0.45C2.407,0.545 2.209,0.677 2.048,0.857C1.887,1.037 1.751,1.253 1.652,1.505C1.565,1.757 1.515,2.045 1.515,2.369C1.515,2.692 1.565,2.992 1.664,3.244C1.763,3.496 1.887,3.712 2.061,3.892C2.234,4.072 2.432,4.204 2.655,4.3C2.878,4.396 3.126,4.444 3.398,4.444C3.56,4.444 3.708,4.444 3.832,4.42C3.956,4.396 4.08,4.372 4.191,4.336C4.303,4.3 4.402,4.252 4.501,4.192C4.6,4.132 4.687,4.06 4.786,3.976C4.823,3.94 4.873,3.916 4.91,3.916L4.885,3.904Z" fill="#83BC41"/>
</svg>
