<svg width="20" height="34" viewBox="0 0 20 34" fill="none" xmlns="http://www.w3.org/2000/svg" xmlns:xlink="http://www.w3.org/1999/xlink">
<path d="M18.273,4.061C18.149,4.309 17.932,4.434 17.684,4.434C17.498,4.434 17.251,4.278 16.941,3.999C16.631,3.72 16.198,3.409 15.671,3.068C15.145,2.726 14.494,2.416 13.689,2.136C12.884,1.857 11.924,1.702 10.747,1.702C9.57,1.702 8.548,1.857 7.681,2.198C6.814,2.54 6.07,2.975 5.451,3.564C4.862,4.154 4.398,4.806 4.088,5.551C3.778,6.296 3.624,7.103 3.624,7.942C3.624,9.028 3.84,9.928 4.305,10.642C4.769,11.356 5.358,11.946 6.132,12.443C6.875,12.94 7.743,13.374 8.703,13.716C9.663,14.057 10.654,14.399 11.645,14.74C12.667,15.082 13.627,15.454 14.587,15.827C15.547,16.199 16.414,16.727 17.158,17.348C17.901,17.938 18.52,18.683 18.985,19.583C19.449,20.484 19.666,21.57 19.666,22.874C19.666,24.178 19.449,25.482 18.985,26.661C18.52,27.841 17.87,28.897 16.972,29.766C16.105,30.635 15.021,31.349 13.751,31.846C12.481,32.342 11.025,32.622 9.415,32.622C7.309,32.622 5.482,32.249 3.964,31.504C2.447,30.759 1.115,29.735 -0.031,28.431L0.588,27.437C0.774,27.22 0.991,27.096 1.208,27.096C1.332,27.096 1.518,27.189 1.734,27.375C1.951,27.562 2.199,27.779 2.509,28.058C2.818,28.338 3.159,28.617 3.593,28.928C4.026,29.238 4.491,29.517 5.079,29.797C5.668,30.076 6.287,30.294 6.999,30.48C7.712,30.666 8.548,30.759 9.477,30.759C10.747,30.759 11.862,30.573 12.884,30.169C13.875,29.797 14.711,29.269 15.423,28.586C16.105,27.934 16.631,27.127 17.003,26.227C17.374,25.326 17.56,24.333 17.56,23.278C17.56,22.129 17.343,21.198 16.879,20.484C16.414,19.769 15.826,19.149 15.052,18.652C14.308,18.155 13.441,17.752 12.481,17.41C11.521,17.069 10.53,16.758 9.539,16.448C8.517,16.137 7.557,15.765 6.597,15.392C5.637,15.02 4.769,14.492 4.026,13.871C3.283,13.25 2.663,12.505 2.199,11.574C1.734,10.642 1.518,9.525 1.518,8.128C1.518,7.041 1.734,6.017 2.137,5.023C2.54,4.03 3.128,3.13 3.933,2.385C4.708,1.609 5.699,1.019 6.844,0.553C7.99,0.087 9.322,-0.13 10.809,-0.13C12.481,-0.13 13.968,0.15 15.268,0.677C16.569,1.205 17.808,2.012 18.892,3.099L18.334,4.154L18.273,4.061Z" fill="#FFFFFF"/>
</svg>
