<svg width="6" height="6" viewBox="0 0 6 6" fill="none" xmlns="http://www.w3.org/2000/svg" xmlns:xlink="http://www.w3.org/1999/xlink">
<path d="M5.013,-0.258L5.013,4.983L4.641,4.983C4.641,4.983 4.53,4.983 4.493,4.959C4.456,4.936 4.418,4.912 4.381,4.864L1.247,0.917C1.247,0.977 1.247,1.037 1.247,1.097C1.247,1.157 1.247,1.205 1.247,1.265L1.247,4.995L0.603,4.995L0.603,-0.246L0.975,-0.246C0.975,-0.246 1.036,-0.246 1.061,-0.246C1.086,-0.246 1.098,-0.246 1.123,-0.234C1.136,-0.234 1.16,-0.21 1.173,-0.198C1.185,-0.186 1.21,-0.162 1.222,-0.138L4.356,3.808C4.356,3.748 4.356,3.688 4.344,3.628C4.332,3.568 4.344,3.508 4.344,3.46L4.344,-0.246L4.988,-0.246L5.013,-0.258Z" fill="#83BC41"/>
</svg>
