<svg width="8" height="6" viewBox="0 0 8 6" fill="none" xmlns="http://www.w3.org/2000/svg" xmlns:xlink="http://www.w3.org/1999/xlink">
<path d="M6.268,2.369C6.268,2.764 6.206,3.124 6.083,3.448C5.959,3.772 5.773,4.06 5.538,4.3C5.302,4.54 5.017,4.719 4.695,4.851C4.361,4.983 4.001,5.043 3.605,5.043C3.209,5.043 2.849,4.983 2.515,4.851C2.193,4.719 1.908,4.54 1.672,4.3C1.437,4.06 1.251,3.784 1.127,3.448C1.003,3.124 0.929,2.764 0.929,2.369C0.929,1.973 0.991,1.613 1.127,1.289C1.251,0.965 1.437,0.677 1.672,0.438C1.908,0.198 2.193,0.018 2.515,-0.114C2.837,-0.246 3.209,-0.306 3.605,-0.306C4.001,-0.306 4.361,-0.246 4.695,-0.114C5.017,0.018 5.302,0.198 5.538,0.438C5.773,0.677 5.959,0.953 6.083,1.289C6.206,1.613 6.268,1.973 6.268,2.369ZM5.513,2.369C5.513,2.045 5.463,1.757 5.376,1.505C5.29,1.253 5.153,1.037 4.992,0.857C4.831,0.677 4.621,0.545 4.385,0.449C4.15,0.354 3.89,0.306 3.593,0.306C3.295,0.306 3.035,0.354 2.8,0.449C2.564,0.545 2.366,0.677 2.193,0.857C2.019,1.037 1.895,1.253 1.809,1.505C1.722,1.757 1.672,2.045 1.672,2.369C1.672,2.692 1.722,2.98 1.809,3.232C1.895,3.484 2.032,3.7 2.193,3.88C2.354,4.06 2.564,4.192 2.8,4.288C3.035,4.384 3.295,4.432 3.593,4.432C3.89,4.432 4.15,4.384 4.385,4.288C4.621,4.192 4.819,4.06 4.992,3.88C5.153,3.7 5.29,3.484 5.376,3.232C5.463,2.98 5.513,2.692 5.513,2.369Z" fill="#83BC41"/>
</svg>
