<svg width="22" height="34" viewBox="0 0 22 34" fill="none" xmlns="http://www.w3.org/2000/svg" xmlns:xlink="http://www.w3.org/1999/xlink">
<path d="M21.908,32.28L19.926,32.28C19.678,32.28 19.461,32.249 19.275,32.156C19.089,32.063 18.935,31.908 18.78,31.69L8.498,18.652C8.374,18.497 8.25,18.341 8.126,18.217C8.002,18.093 7.847,18 7.692,17.938C7.538,17.876 7.352,17.814 7.135,17.783C6.918,17.783 6.639,17.751 6.33,17.751L2.149,17.751L2.149,32.28L-0.174,32.28L-0.174,0.149L8.033,0.149C11.719,0.149 14.475,0.863 16.302,2.291C18.129,3.72 19.059,5.831 19.059,8.593C19.059,9.804 18.842,10.953 18.439,11.946C18.036,12.94 17.417,13.84 16.612,14.616C15.807,15.392 14.847,16.013 13.732,16.479C12.617,16.975 11.347,17.286 9.953,17.441C10.325,17.658 10.635,17.969 10.913,18.341L21.939,32.218L21.908,32.28ZM7.692,16.013C9.117,16.013 10.387,15.858 11.502,15.516C12.617,15.175 13.577,14.678 14.351,14.057C15.125,13.436 15.714,12.66 16.116,11.76C16.519,10.86 16.736,9.866 16.736,8.749C16.736,6.451 15.992,4.775 14.506,3.657C13.019,2.54 10.851,2.012 8.002,2.012L2.149,2.012L2.149,16.044L7.692,16.044L7.692,16.013Z" fill="#FFFFFF"/>
</svg>
