<svg width="12" height="14" viewBox="0 0 12 14" fill="none" xmlns="http://www.w3.org/2000/svg" xmlns:xlink="http://www.w3.org/1999/xlink">
<path d="M10.213,11.046C10.213,11.046 10.398,11.077 10.46,11.17L11.173,11.946C10.615,12.598 9.934,13.095 9.16,13.467C8.385,13.84 7.425,13.995 6.31,13.995C5.35,13.995 4.452,13.84 3.678,13.498C2.873,13.157 2.222,12.691 1.634,12.07C1.076,11.449 0.643,10.735 0.333,9.866C0.023,9.028 -0.131,8.065 -0.131,7.041C-0.131,6.017 0.023,5.085 0.364,4.247C0.674,3.409 1.138,2.664 1.727,2.043C2.315,1.422 2.997,0.956 3.833,0.615C4.638,0.273 5.536,0.118 6.527,0.118C7.518,0.118 8.354,0.273 9.067,0.584C9.81,0.894 10.46,1.298 11.018,1.857L10.429,2.695C10.429,2.695 10.337,2.819 10.275,2.85C10.213,2.881 10.151,2.912 10.027,2.912C9.903,2.912 9.779,2.85 9.624,2.726C9.469,2.602 9.253,2.478 8.974,2.322C8.695,2.167 8.385,2.043 7.983,1.919C7.58,1.795 7.085,1.732 6.527,1.732C5.815,1.732 5.195,1.857 4.607,2.105C4.019,2.353 3.523,2.695 3.12,3.161C2.718,3.626 2.377,4.185 2.129,4.837C1.913,5.489 1.789,6.234 1.789,7.072C1.789,7.91 1.913,8.686 2.16,9.338C2.408,9.99 2.718,10.549 3.151,11.015C3.585,11.48 4.081,11.822 4.638,12.07C5.195,12.319 5.815,12.443 6.496,12.443C6.899,12.443 7.27,12.443 7.58,12.381C7.89,12.319 8.2,12.256 8.478,12.163C8.757,12.07 9.005,11.946 9.253,11.791C9.5,11.636 9.717,11.449 9.965,11.232C10.058,11.139 10.182,11.077 10.275,11.077L10.213,11.046Z" fill="#83BC41"/>
</svg>
