<svg width="12" height="14" viewBox="0 0 12 14" fill="none" xmlns="http://www.w3.org/2000/svg" xmlns:xlink="http://www.w3.org/1999/xlink">
<path d="M10.31,11.046C10.31,11.046 10.496,11.077 10.557,11.17L11.27,11.946C10.712,12.598 10.031,13.095 9.257,13.467C8.482,13.84 7.522,13.995 6.407,13.995C5.447,13.995 4.549,13.84 3.775,13.498C2.97,13.157 2.319,12.691 1.731,12.07C1.173,11.449 0.74,10.735 0.43,9.866C0.12,9.028 -0.034,8.065 -0.034,7.041C-0.034,6.017 0.12,5.085 0.461,4.247C0.771,3.409 1.235,2.664 1.824,2.043C2.412,1.422 3.094,0.956 3.93,0.615C4.735,0.273 5.633,0.118 6.624,0.118C7.615,0.118 8.451,0.273 9.164,0.584C9.907,0.894 10.557,1.298 11.115,1.857L10.526,2.695C10.526,2.695 10.434,2.819 10.372,2.85C10.31,2.881 10.248,2.912 10.124,2.912C10,2.912 9.876,2.85 9.721,2.726C9.566,2.602 9.35,2.478 9.071,2.322C8.792,2.167 8.482,2.043 8.08,1.919C7.677,1.795 7.182,1.732 6.624,1.732C5.912,1.732 5.292,1.857 4.704,2.105C4.116,2.353 3.62,2.695 3.217,3.161C2.815,3.626 2.474,4.185 2.226,4.837C2.01,5.489 1.886,6.234 1.886,7.072C1.886,7.91 2.01,8.686 2.257,9.338C2.505,9.99 2.815,10.549 3.248,11.015C3.682,11.48 4.178,11.822 4.735,12.07C5.292,12.319 5.912,12.443 6.593,12.443C6.996,12.443 7.367,12.443 7.677,12.381C7.987,12.319 8.297,12.256 8.575,12.163C8.854,12.07 9.102,11.946 9.35,11.791C9.597,11.636 9.814,11.449 10.062,11.232C10.155,11.139 10.279,11.077 10.372,11.077L10.31,11.046Z" fill="#83BC41"/>
</svg>
