<svg width="12" height="14" viewBox="0 0 12 14" fill="none" xmlns="http://www.w3.org/2000/svg" xmlns:xlink="http://www.w3.org/1999/xlink">
<path d="M11.236,0.273L11.236,13.84L10.307,13.84C10.307,13.84 10.028,13.84 9.935,13.778C9.842,13.716 9.749,13.653 9.657,13.529L1.821,3.316C1.821,3.471 1.821,3.626 1.821,3.781C1.821,3.937 1.821,4.061 1.821,4.216L1.821,13.871L0.211,13.871L0.211,0.304L1.14,0.304C1.14,0.304 1.295,0.304 1.356,0.304C1.418,0.304 1.449,0.304 1.511,0.336C1.542,0.336 1.604,0.398 1.635,0.429C1.666,0.46 1.728,0.522 1.759,0.584L9.595,10.797C9.595,10.642 9.595,10.487 9.564,10.332C9.533,10.177 9.564,10.021 9.564,9.897L9.564,0.304L11.174,0.304L11.236,0.273Z" fill="#83BC41"/>
</svg>
