<svg width="6" height="6" viewBox="0 0 6 6" fill="none" xmlns="http://www.w3.org/2000/svg" xmlns:xlink="http://www.w3.org/1999/xlink">
<path d="M4.672,3.313C4.672,3.709 4.61,4.069 4.486,4.393C4.362,4.717 4.176,5.004 3.941,5.244C3.705,5.484 3.42,5.664 3.098,5.796C2.764,5.928 2.405,5.988 2.008,5.988C1.612,5.988 1.253,5.928 0.918,5.796C0.596,5.664 0.311,5.484 0.076,5.244C-0.16,5.004 -0.346,4.729 -0.469,4.393C-0.593,4.069 -0.668,3.709 -0.668,3.313C-0.668,2.917 -0.606,2.558 -0.469,2.234C-0.346,1.91 -0.16,1.622 0.076,1.382C0.311,1.142 0.596,0.962 0.918,0.83C1.24,0.698 1.612,0.638 2.008,0.638C2.405,0.638 2.764,0.698 3.098,0.83C3.42,0.962 3.705,1.142 3.941,1.382C4.176,1.622 4.362,1.898 4.486,2.234C4.61,2.558 4.672,2.917 4.672,3.313ZM3.916,3.313C3.916,2.989 3.866,2.701 3.78,2.45C3.693,2.198 3.557,1.982 3.396,1.802C3.235,1.622 3.024,1.49 2.789,1.394C2.553,1.298 2.293,1.25 1.996,1.25C1.699,1.25 1.438,1.298 1.203,1.394C0.968,1.49 0.769,1.622 0.596,1.802C0.423,1.982 0.299,2.198 0.212,2.45C0.125,2.701 0.076,2.989 0.076,3.313C0.076,3.637 0.125,3.925 0.212,4.177C0.299,4.429 0.435,4.645 0.596,4.824C0.757,5.004 0.968,5.136 1.203,5.232C1.438,5.328 1.699,5.376 1.996,5.376C2.293,5.376 2.553,5.328 2.789,5.232C3.024,5.136 3.222,5.004 3.396,4.824C3.557,4.645 3.693,4.429 3.78,4.177C3.866,3.925 3.916,3.637 3.916,3.313Z" fill="#83BC41"/>
</svg>
