<svg width="14" height="14" viewBox="0 0 14 14" fill="none" xmlns="http://www.w3.org/2000/svg" xmlns:xlink="http://www.w3.org/1999/xlink">
<path d="M13.671,7.072C13.671,8.097 13.516,9.028 13.206,9.866C12.897,10.704 12.432,11.45 11.844,12.07C11.255,12.691 10.543,13.157 9.738,13.498C8.902,13.84 8.003,13.995 7.012,13.995C6.021,13.995 5.123,13.84 4.287,13.498C3.482,13.157 2.769,12.691 2.181,12.07C1.593,11.45 1.128,10.736 0.818,9.866C0.509,9.028 0.323,8.097 0.323,7.072C0.323,6.048 0.478,5.116 0.818,4.278C1.128,3.44 1.593,2.695 2.181,2.074C2.769,1.453 3.482,0.988 4.287,0.646C5.092,0.305 6.021,0.149 7.012,0.149C8.003,0.149 8.902,0.305 9.738,0.646C10.543,0.988 11.255,1.453 11.844,2.074C12.432,2.695 12.897,3.409 13.206,4.278C13.516,5.116 13.671,6.048 13.671,7.072ZM11.782,7.072C11.782,6.234 11.658,5.489 11.441,4.837C11.224,4.185 10.884,3.626 10.481,3.161C10.078,2.695 9.552,2.354 8.963,2.105C8.375,1.857 7.725,1.733 6.981,1.733C6.238,1.733 5.588,1.857 4.999,2.105C4.411,2.354 3.915,2.695 3.482,3.161C3.048,3.626 2.738,4.185 2.522,4.837C2.305,5.489 2.181,6.234 2.181,7.072C2.181,7.91 2.305,8.656 2.522,9.307C2.738,9.959 3.079,10.518 3.482,10.984C3.884,11.449 4.411,11.791 4.999,12.039C5.588,12.288 6.238,12.412 6.981,12.412C7.725,12.412 8.375,12.288 8.963,12.039C9.552,11.791 10.047,11.449 10.481,10.984C10.884,10.518 11.224,9.959 11.441,9.307C11.658,8.656 11.782,7.91 11.782,7.072Z" fill="#83BC41"/>
</svg>
