<svg width="8" height="14" viewBox="0 0 8 14" fill="none" xmlns="http://www.w3.org/2000/svg" xmlns:xlink="http://www.w3.org/1999/xlink">
<path d="M7.309,1.115C7.259,1.211 7.173,1.259 7.074,1.259C6.999,1.259 6.9,1.199 6.776,1.091C6.652,0.983 6.479,0.863 6.268,0.731C6.058,0.599 5.798,0.479 5.476,0.371C5.153,0.263 4.769,0.203 4.299,0.203C3.828,0.203 3.419,0.263 3.072,0.395C2.725,0.527 2.428,0.695 2.18,0.923C1.945,1.151 1.759,1.402 1.635,1.69C1.511,1.978 1.449,2.29 1.449,2.614C1.449,3.034 1.536,3.382 1.722,3.657C1.908,3.933 2.143,4.161 2.453,4.353C2.75,4.545 3.097,4.713 3.481,4.845C3.865,4.977 4.262,5.109 4.658,5.241C5.067,5.373 5.451,5.517 5.835,5.66C6.219,5.804 6.566,6.008 6.863,6.248C7.16,6.476 7.408,6.764 7.594,7.112C7.78,7.46 7.866,7.879 7.866,8.383C7.866,8.887 7.78,9.391 7.594,9.847C7.408,10.302 7.148,10.71 6.789,11.046C6.442,11.382 6.008,11.658 5.5,11.85C4.992,12.041 4.41,12.149 3.766,12.149C2.924,12.149 2.193,12.005 1.586,11.718C0.979,11.43 0.446,11.034 -0.012,10.53L0.235,10.146C0.31,10.062 0.396,10.014 0.483,10.014C0.533,10.014 0.607,10.05 0.694,10.122C0.78,10.194 0.88,10.278 1.003,10.386C1.127,10.494 1.264,10.602 1.437,10.722C1.61,10.842 1.796,10.95 2.032,11.058C2.267,11.166 2.515,11.25 2.8,11.322C3.085,11.394 3.419,11.43 3.791,11.43C4.299,11.43 4.745,11.358 5.153,11.202C5.55,11.058 5.884,10.854 6.169,10.59C6.442,10.338 6.652,10.026 6.801,9.679C6.95,9.331 7.024,8.947 7.024,8.539C7.024,8.095 6.937,7.735 6.752,7.46C6.566,7.184 6.33,6.944 6.021,6.752C5.723,6.56 5.376,6.404 4.992,6.272C4.608,6.14 4.212,6.02 3.816,5.9C3.407,5.78 3.023,5.636 2.639,5.493C2.255,5.349 1.908,5.145 1.61,4.905C1.313,4.665 1.065,4.377 0.88,4.017C0.694,3.657 0.607,3.226 0.607,2.686C0.607,2.266 0.694,1.87 0.855,1.486C1.016,1.103 1.251,0.755 1.573,0.467C1.883,0.167 2.279,-0.061 2.738,-0.241C3.196,-0.421 3.729,-0.505 4.323,-0.505C4.992,-0.505 5.587,-0.397 6.107,-0.193C6.628,0.011 7.123,0.323 7.557,0.743L7.334,1.151L7.309,1.115Z" fill="#595A5C"/>
</svg>
