<svg width="12" height="14" viewBox="0 0 12 14" fill="none" xmlns="http://www.w3.org/2000/svg" xmlns:xlink="http://www.w3.org/1999/xlink">
<path d="M5.713,12.386C6.27,12.386 6.766,12.293 7.2,12.106C7.633,11.92 8.005,11.641 8.315,11.299C8.624,10.958 8.841,10.554 9.027,10.089C9.213,9.623 9.275,9.095 9.275,8.536L9.275,0.31L11.102,0.31L11.102,8.536C11.102,9.312 10.978,10.057 10.73,10.709C10.482,11.361 10.142,11.951 9.677,12.448C9.213,12.945 8.655,13.317 7.974,13.597C7.323,13.876 6.549,14 5.713,14C4.877,14 4.134,13.876 3.452,13.597C2.771,13.317 2.213,12.945 1.749,12.448C1.284,11.951 0.913,11.392 0.665,10.709C0.417,10.026 0.293,9.312 0.293,8.536L0.293,0.31L2.12,0.31L2.12,8.536C2.12,9.095 2.213,9.623 2.368,10.089C2.523,10.554 2.771,10.958 3.081,11.299C3.39,11.641 3.762,11.92 4.195,12.106C4.629,12.293 5.156,12.386 5.713,12.386Z" fill="#83BC41"/>
</svg>
