<svg width="26" height="32" viewBox="0 0 26 32" fill="none" xmlns="http://www.w3.org/2000/svg" xmlns:xlink="http://www.w3.org/1999/xlink">
<path d="M12.487,29.981C14.035,29.981 15.398,29.701 16.606,29.173C17.814,28.646 18.867,27.901 19.703,26.938C20.539,25.976 21.189,24.858 21.654,23.554C22.087,22.251 22.335,20.854 22.335,19.363L22.335,-0.505L24.658,-0.505L24.658,19.363C24.658,21.133 24.379,22.778 23.822,24.331C23.264,25.883 22.459,27.218 21.406,28.335C20.353,29.484 19.083,30.384 17.566,31.036C16.048,31.688 14.376,31.998 12.518,31.998C10.659,31.998 8.956,31.688 7.469,31.036C5.952,30.384 4.682,29.484 3.629,28.335C2.576,27.187 1.771,25.852 1.213,24.331C0.656,22.809 0.377,21.133 0.377,19.363L0.377,-0.505L2.7,-0.505L2.7,19.332C2.7,20.823 2.917,22.22 3.381,23.523C3.815,24.827 4.465,25.945 5.301,26.907C6.138,27.87 7.16,28.615 8.368,29.142C9.575,29.701 10.969,29.95 12.487,29.95L12.487,29.981Z" fill="#FFFFFF"/>
</svg>
