<svg width="6" height="6" viewBox="0 0 6 6" fill="none" xmlns="http://www.w3.org/2000/svg" xmlns:xlink="http://www.w3.org/1999/xlink">
<path d="M4.124,3.904C4.124,3.904 4.198,3.916 4.223,3.952L4.508,4.252C4.285,4.504 4.012,4.696 3.703,4.839C3.393,4.983 3.009,5.043 2.563,5.043C2.179,5.043 1.82,4.983 1.51,4.851C1.188,4.72 0.928,4.54 0.692,4.3C0.469,4.06 0.296,3.784 0.172,3.448C0.048,3.124 -0.014,2.752 -0.014,2.357C-0.014,1.961 0.048,1.601 0.184,1.277C0.308,0.953 0.494,0.665 0.73,0.426C0.965,0.186 1.237,0.006 1.572,-0.126C1.894,-0.258 2.253,-0.318 2.65,-0.318C3.046,-0.318 3.381,-0.258 3.666,-0.138C3.963,-0.018 4.223,0.138 4.446,0.354L4.211,0.677C4.211,0.677 4.173,0.725 4.149,0.737C4.124,0.749 4.099,0.761 4.05,0.761C4,0.761 3.95,0.737 3.889,0.689C3.827,0.641 3.74,0.593 3.628,0.533C3.517,0.474 3.393,0.426 3.232,0.378C3.071,0.33 2.873,0.306 2.65,0.306C2.365,0.306 2.117,0.354 1.882,0.45C1.646,0.545 1.448,0.677 1.287,0.857C1.126,1.037 0.99,1.253 0.891,1.505C0.804,1.757 0.754,2.045 0.754,2.369C0.754,2.692 0.804,2.992 0.903,3.244C1.002,3.496 1.126,3.712 1.299,3.892C1.473,4.072 1.671,4.204 1.894,4.3C2.117,4.396 2.365,4.444 2.637,4.444C2.798,4.444 2.947,4.444 3.071,4.42C3.195,4.396 3.319,4.372 3.43,4.336C3.542,4.3 3.641,4.252 3.74,4.192C3.839,4.132 3.926,4.06 4.025,3.976C4.062,3.94 4.111,3.916 4.149,3.916L4.124,3.904Z" fill="#83BC41"/>
</svg>
