<svg width="4" height="6" viewBox="0 0 4 6" fill="none" xmlns="http://www.w3.org/2000/svg" xmlns:xlink="http://www.w3.org/1999/xlink">
<path d="M3.163,4.983L2.519,4.983C2.383,4.983 2.284,4.935 2.222,4.84L0.822,2.968C0.822,2.968 0.735,2.872 0.685,2.848C0.636,2.824 0.562,2.812 0.462,2.812L-0.095,2.812L-0.095,4.995L-0.826,4.995L-0.826,-0.246L0.698,-0.246C1.045,-0.246 1.342,-0.21 1.59,-0.15C1.838,-0.078 2.048,0.018 2.209,0.138C2.37,0.27 2.494,0.414 2.568,0.594C2.643,0.773 2.68,0.977 2.68,1.193C2.68,1.373 2.655,1.553 2.593,1.709C2.531,1.865 2.445,2.009 2.333,2.141C2.222,2.273 2.085,2.381 1.912,2.465C1.751,2.549 1.565,2.621 1.354,2.669C1.441,2.717 1.528,2.788 1.59,2.896L3.163,4.971L3.163,4.983ZM0.673,2.285C0.884,2.285 1.069,2.261 1.231,2.213C1.392,2.165 1.528,2.093 1.639,1.997C1.751,1.901 1.825,1.793 1.887,1.673C1.937,1.541 1.974,1.409 1.974,1.253C1.974,0.941 1.862,0.701 1.652,0.546C1.441,0.39 1.119,0.306 0.698,0.306L-0.107,0.306L-0.107,2.285L0.661,2.285L0.673,2.285Z" fill="#83BC41"/>
</svg>
