<svg width="6" height="6" viewBox="0 0 6 6" fill="none" xmlns="http://www.w3.org/2000/svg" xmlns:xlink="http://www.w3.org/1999/xlink">
<path d="M4.524,3.313C4.524,3.709 4.462,4.069 4.339,4.393C4.215,4.717 4.029,5.004 3.794,5.244C3.558,5.484 3.273,5.664 2.951,5.796C2.617,5.928 2.257,5.988 1.861,5.988C1.465,5.988 1.105,5.928 0.771,5.796C0.449,5.664 0.164,5.484 -0.072,5.244C-0.307,5.004 -0.493,4.729 -0.617,4.393C-0.741,4.069 -0.815,3.709 -0.815,3.313C-0.815,2.917 -0.753,2.558 -0.617,2.234C-0.493,1.91 -0.307,1.622 -0.072,1.382C0.164,1.142 0.449,0.962 0.771,0.83C1.093,0.698 1.465,0.638 1.861,0.638C2.257,0.638 2.617,0.698 2.951,0.83C3.273,0.962 3.558,1.142 3.794,1.382C4.029,1.622 4.215,1.898 4.339,2.234C4.462,2.558 4.524,2.917 4.524,3.313ZM3.769,3.313C3.769,2.989 3.719,2.701 3.632,2.45C3.546,2.198 3.409,1.982 3.248,1.802C3.087,1.622 2.877,1.49 2.641,1.394C2.406,1.298 2.146,1.25 1.849,1.25C1.551,1.25 1.291,1.298 1.056,1.394C0.82,1.49 0.622,1.622 0.449,1.802C0.275,1.982 0.151,2.198 0.065,2.45C-0.022,2.701 -0.072,2.989 -0.072,3.313C-0.072,3.637 -0.022,3.925 0.065,4.177C0.151,4.429 0.288,4.645 0.449,4.824C0.61,5.004 0.82,5.136 1.056,5.232C1.291,5.328 1.551,5.376 1.849,5.376C2.146,5.376 2.406,5.328 2.641,5.232C2.877,5.136 3.075,5.004 3.248,4.824C3.409,4.645 3.546,4.429 3.632,4.177C3.719,3.925 3.769,3.637 3.769,3.313Z" fill="#83BC41"/>
</svg>
