<svg width="10" height="14" viewBox="0 0 10 14" fill="none" xmlns="http://www.w3.org/2000/svg" xmlns:xlink="http://www.w3.org/1999/xlink">
<path d="M9.908,13.84L8.297,13.84C7.957,13.84 7.709,13.716 7.554,13.467L4.054,8.625C4.054,8.625 3.838,8.376 3.714,8.314C3.59,8.252 3.404,8.221 3.156,8.221L1.763,8.221L1.763,13.871L-0.065,13.871L-0.065,0.305L3.745,0.305C4.612,0.305 5.355,0.398 5.975,0.553C6.594,0.739 7.12,0.988 7.523,1.298C7.926,1.64 8.235,2.012 8.421,2.478C8.607,2.943 8.7,3.471 8.7,4.03C8.7,4.496 8.638,4.961 8.483,5.365C8.328,5.768 8.111,6.141 7.833,6.482C7.554,6.824 7.213,7.103 6.78,7.321C6.377,7.538 5.913,7.724 5.386,7.848C5.603,7.973 5.82,8.159 5.975,8.438L9.908,13.809L9.908,13.84ZM3.683,6.855C4.209,6.855 4.674,6.793 5.076,6.669C5.479,6.545 5.82,6.358 6.098,6.11C6.377,5.862 6.563,5.582 6.718,5.272C6.842,4.93 6.935,4.589 6.935,4.185C6.935,3.378 6.656,2.757 6.129,2.354C5.603,1.95 4.798,1.733 3.745,1.733L1.732,1.733L1.732,6.855L3.652,6.855L3.683,6.855Z" fill="#83BC41"/>
</svg>
