<svg width="10" height="14" viewBox="0 0 10 14" fill="none" xmlns="http://www.w3.org/2000/svg" xmlns:xlink="http://www.w3.org/1999/xlink">
<path d="M4.206,0.273C5.074,0.273 5.817,0.367 6.436,0.584C7.056,0.77 7.582,1.05 8.016,1.422C8.449,1.795 8.728,2.229 8.945,2.757C9.162,3.285 9.255,3.844 9.255,4.495C9.255,5.147 9.131,5.706 8.914,6.234C8.697,6.762 8.387,7.196 7.954,7.6C7.52,7.972 6.994,8.283 6.374,8.5C5.755,8.717 5.012,8.811 4.206,8.811L2.039,8.811L2.039,13.871L0.211,13.871L0.211,0.304L4.206,0.304L4.206,0.273ZM4.206,7.32C4.733,7.32 5.198,7.258 5.6,7.103C6.003,6.979 6.343,6.762 6.622,6.513C6.901,6.265 7.087,5.955 7.242,5.613C7.365,5.272 7.458,4.899 7.458,4.464C7.458,3.595 7.18,2.912 6.653,2.447C6.127,1.95 5.321,1.733 4.237,1.733L2.07,1.733L2.07,7.32L4.237,7.32L4.206,7.32Z" fill="#83BC41"/>
</svg>
