<svg width="150" height="246" viewBox="0 0 150 246" fill="none" xmlns="http://www.w3.org/2000/svg" xmlns:xlink="http://www.w3.org/1999/xlink">
<path d="M-0.472,0.026C0.536,0.14 0.765,0.095 0.88,0.186C16.508,13.784 35.343,21.254 54.615,27.86C68.272,32.552 81.952,37.176 95.632,41.822C107.135,45.74 117.859,51.047 127.643,58.335C140.865,68.152 147.694,81.272 148.702,97.398C149.389,108.468 149.733,119.583 149.779,130.675C149.916,166.367 149.825,202.036 149.825,237.728L149.825,244.356C148.175,243.194 147.281,242.648 146.502,241.986C137.382,234.198 127.277,227.956 116.049,223.81C96.686,216.658 77.163,209.894 57.662,203.084C45.013,198.665 32.8,193.54 21.938,185.432C9.312,176.002 2.025,163.816 0.696,148.237C0.078,140.993 -0.426,133.705 -0.426,126.439C-0.518,85.827 -0.472,45.239 -0.472,4.627C-0.472,3.192 -0.472,1.757 -0.472,0.026Z" transform="rotate(-94.336 74.685 122.191)" fill="#FFFFFF"/>
</svg>
