<svg width="4" height="6" viewBox="0 0 4 6" fill="none" xmlns="http://www.w3.org/2000/svg" xmlns:xlink="http://www.w3.org/1999/xlink">
<path d="M3.963,0.698L3.963,5.94L3.591,5.94C3.591,5.94 3.48,5.94 3.443,5.916C3.405,5.892 3.368,5.868 3.331,5.82L0.197,1.874C0.197,1.934 0.197,1.994 0.197,2.054C0.197,2.114 0.197,2.162 0.197,2.222L0.197,5.952L-0.447,5.952L-0.447,0.71L-0.076,0.71C-0.076,0.71 -0.014,0.71 0.011,0.71C0.036,0.71 0.048,0.71 0.073,0.722C0.085,0.722 0.11,0.746 0.122,0.758C0.135,0.77 0.16,0.794 0.172,0.818L3.306,4.765C3.306,4.705 3.306,4.645 3.294,4.585C3.281,4.525 3.294,4.465 3.294,4.417L3.294,0.71L3.938,0.71L3.963,0.698Z" fill="#83BC41"/>
</svg>
