<svg width="14" height="14" viewBox="0 0 14 14" fill="none" xmlns="http://www.w3.org/2000/svg" xmlns:xlink="http://www.w3.org/1999/xlink">
<path d="M12.679,7.046C12.679,8.07 12.524,9.002 12.215,9.84C11.905,10.678 11.44,11.423 10.852,12.044C10.264,12.665 9.551,13.131 8.746,13.472C7.91,13.814 7.012,13.969 6.021,13.969C5.03,13.969 4.131,13.814 3.295,13.472C2.49,13.131 1.778,12.665 1.189,12.044C0.601,11.423 0.136,10.709 -0.173,9.84C-0.483,9.002 -0.669,8.07 -0.669,7.046C-0.669,6.021 -0.514,5.09 -0.173,4.252C0.136,3.414 0.601,2.669 1.189,2.048C1.778,1.427 2.49,0.961 3.295,0.62C4.1,0.278 5.03,0.123 6.021,0.123C7.012,0.123 7.91,0.278 8.746,0.62C9.551,0.961 10.264,1.427 10.852,2.048C11.44,2.669 11.905,3.383 12.215,4.252C12.524,5.09 12.679,6.021 12.679,7.046ZM10.79,7.046C10.79,6.208 10.666,5.463 10.449,4.811C10.233,4.159 9.892,3.6 9.489,3.134C9.087,2.669 8.56,2.327 7.972,2.079C7.383,1.83 6.733,1.706 5.99,1.706C5.246,1.706 4.596,1.83 4.008,2.079C3.419,2.327 2.924,2.669 2.49,3.134C2.056,3.6 1.747,4.159 1.53,4.811C1.313,5.463 1.189,6.208 1.189,7.046C1.189,7.884 1.313,8.629 1.53,9.281C1.747,9.933 2.087,10.492 2.49,10.957C2.893,11.423 3.419,11.765 4.008,12.013C4.596,12.261 5.246,12.386 5.99,12.386C6.733,12.386 7.383,12.261 7.972,12.013C8.56,11.765 9.056,11.423 9.489,10.957C9.892,10.492 10.233,9.933 10.449,9.281C10.666,8.629 10.79,7.884 10.79,7.046Z" fill="#83BC41"/>
</svg>
