<svg width="6" height="6" viewBox="0 0 6 6" fill="none" xmlns="http://www.w3.org/2000/svg" xmlns:xlink="http://www.w3.org/1999/xlink">
<path d="M2.083,-0.258C2.429,-0.258 2.727,-0.222 2.975,-0.138C3.222,-0.066 3.433,0.042 3.606,0.186C3.78,0.33 3.891,0.498 3.978,0.701C4.065,0.905 4.102,1.121 4.102,1.373C4.102,1.625 4.052,1.841 3.966,2.045C3.879,2.249 3.755,2.417 3.582,2.573C3.408,2.717 3.197,2.836 2.95,2.92C2.702,3.004 2.405,3.04 2.083,3.04L1.215,3.04L1.215,4.995L0.484,4.995L0.484,-0.246L2.083,-0.246L2.083,-0.258ZM2.083,2.465C2.293,2.465 2.479,2.441 2.64,2.381C2.801,2.333 2.937,2.249 3.049,2.153C3.16,2.057 3.235,1.937 3.297,1.805C3.346,1.673 3.383,1.529 3.383,1.361C3.383,1.025 3.272,0.761 3.061,0.582C2.851,0.39 2.529,0.306 2.095,0.306L1.228,0.306L1.228,2.465L2.095,2.465L2.083,2.465Z" fill="#83BC41"/>
</svg>
