<svg width="28" height="34" viewBox="0 0 28 34" fill="none" xmlns="http://www.w3.org/2000/svg" xmlns:xlink="http://www.w3.org/1999/xlink">
<path d="M27.67,32.28L25.874,32.28C25.657,32.28 25.502,32.218 25.348,32.125C25.193,32.032 25.1,31.877 25.038,31.69L21.29,22.346L5.558,22.346L1.81,31.69C1.748,31.846 1.655,32.001 1.5,32.125C1.346,32.249 1.16,32.311 0.943,32.311L-0.822,32.311L12.278,0.181L14.57,0.181L27.67,32.311L27.67,32.28ZM20.578,20.608L14.043,4.372C13.827,3.844 13.61,3.192 13.393,2.478C13.3,2.85 13.207,3.192 13.083,3.502C12.99,3.813 12.867,4.123 12.743,4.403L6.208,20.608L20.547,20.608L20.578,20.608Z" fill="#FFFFFF"/>
</svg>
