<svg width="12" height="14" viewBox="0 0 12 14" fill="none" xmlns="http://www.w3.org/2000/svg" xmlns:xlink="http://www.w3.org/1999/xlink">
<path d="M11.117,7.32L11.117,12.536C10.436,13.032 9.723,13.405 8.949,13.622C8.175,13.871 7.339,13.995 6.409,13.995C5.326,13.995 4.334,13.839 3.467,13.498C2.6,13.157 1.857,12.691 1.237,12.07C0.618,11.449 0.153,10.735 -0.187,9.866C-0.528,8.997 -0.683,8.065 -0.683,7.041C-0.683,6.016 -0.528,5.054 -0.187,4.216C0.122,3.378 0.587,2.633 1.206,2.012C1.795,1.391 2.538,0.925 3.405,0.584C4.273,0.242 5.233,0.087 6.286,0.087C6.812,0.087 7.308,0.118 7.772,0.211C8.237,0.273 8.67,0.397 9.042,0.553C9.414,0.708 9.785,0.894 10.126,1.08C10.467,1.267 10.776,1.515 11.055,1.794L10.529,2.633C10.529,2.633 10.343,2.85 10.219,2.881C10.095,2.912 9.94,2.881 9.785,2.788C9.63,2.695 9.476,2.601 9.259,2.477C9.042,2.353 8.825,2.229 8.546,2.105C8.268,1.981 7.927,1.887 7.555,1.794C7.184,1.701 6.719,1.67 6.193,1.67C5.418,1.67 4.737,1.794 4.118,2.043C3.498,2.291 2.972,2.664 2.538,3.098C2.105,3.564 1.764,4.123 1.547,4.775C1.33,5.426 1.206,6.172 1.206,7.01C1.206,7.848 1.33,8.624 1.578,9.307C1.826,9.99 2.167,10.549 2.631,11.014C3.065,11.48 3.622,11.853 4.273,12.101C4.923,12.349 5.635,12.474 6.44,12.474C7.06,12.474 7.617,12.411 8.113,12.256C8.608,12.101 9.073,11.915 9.538,11.666L9.538,8.686L7.432,8.686C7.432,8.686 7.215,8.655 7.153,8.593C7.091,8.531 7.06,8.438 7.06,8.345L7.06,7.289L11.21,7.289L11.117,7.32Z" fill="#83BC41"/>
</svg>
